<svg width="16" height="16" viewBox="0 0 16 16" fill="none" xmlns="http://www.w3.org/2000/svg">
<path d="M3.33333 0.666748C2.59695 0.666748 2 1.2637 2 2.00008V14.0001C2 14.7365 2.59696 15.3334 3.33333 15.3334H12.6667C13.4031 15.3334 14 14.7365 14 14.0001V5.33342C14 5.27583 13.9927 5.21994 13.979 5.16664C14.0357 4.94581 13.9776 4.70158 13.8047 4.52868L10.1381 0.86201C9.96517 0.689113 9.72094 0.631036 9.50011 0.68778C9.44681 0.674051 9.39092 0.666748 9.33333 0.666748H3.33333ZM10 2.60956L12.0572 4.66675H10V2.60956ZM3.33333 2.00008H8.66667V5.33342C8.66667 5.7016 8.96514 6.00008 9.33333 6.00008H12.6667V14.0001H3.33333V2.00008ZM5.33333 7.33342C4.96514 7.33342 4.66667 7.63189 4.66667 8.00008C4.66667 8.36827 4.96514 8.66675 5.33333 8.66675H10C10.3682 8.66675 10.6667 8.36827 10.6667 8.00008C10.6667 7.63189 10.3682 7.33342 10 7.33342H5.33333ZM4.66667 11.3334C4.66667 10.9652 4.96514 10.6667 5.33333 10.6667H8.66667C9.03486 10.6667 9.33333 10.9652 9.33333 11.3334C9.33333 11.7016 9.03486 12.0001 8.66667 12.0001H5.33333C4.96514 12.0001 4.66667 11.7016 4.66667 11.3334Z" fill="white"/>
</svg>
