<?xml version="1.0" encoding="utf-8"?>
<svg version="1.1" xmlns:xlink="http://www.w3.org/1999/xlink" width="17px" height="17px" xmlns="http://www.w3.org/2000/svg">
  <g transform="matrix(1 0 0 1 -235 -74 )">
    <path d="M 17 8.5  C 17 3.805875  13.194125 0  8.5 0  C 3.805875 0  0 3.805875  0 8.5  C 0 13.194125  3.805875 17  8.5 17  C 13.194125 17  17 13.194125  17 8.5  Z M 4.95833333333333 7.79166666666667  C 3.39352654214609 7.79166666666667  2.125 6.52314012452058  2.125 4.95833333333333  C 2.125 3.39352654214609  3.39352654214609 2.125  4.95833333333333 2.125  C 6.52314012452058 2.125  7.79166666666667 3.39352654214609  7.79166666666667 4.95833333333333  C 7.79166666666667 6.52314012452058  6.52314012452058 7.79166666666667  4.95833333333333 7.79166666666667  Z " fill-rule="nonzero" fill="#ffffff" stroke="none" transform="matrix(1 0 0 1 235 74 )" />
  </g>
</svg>