<?xml version="1.0" encoding="utf-8"?>
<svg version="1.1" xmlns:xlink="http://www.w3.org/1999/xlink" width="26px" height="35px" xmlns="http://www.w3.org/2000/svg">
  <g transform="matrix(1 0 0 1 -12 -68 )">
    <path d="M 25.8992247936047 6.71091444137168  C 25.8992247936047 3.97392807052881  23.7335324206931 1.7551622289823  21.0620154912791 1.7551622289823  L 14.6124031133721 1.7551622289823  L 14.6124031133721 0.103244850663717  L 11.3875968866279 0.103244850663717  L 11.3875968866279 1.7551622289823  L 4.93798450872093 1.7551622289823  C 2.26646757930686 1.7551622289823  0.10077520639535 3.97392807052881  0.10077520639535 6.71091444137168  L 0.100775206395351 11.6666666537611  C 0.100775206395348 16.2283106367551  3.71026248894138 19.9262537002212  8.16279069767442 19.9262537002212  L 17.8372093023256 19.9262537002212  C 22.2897375110586 19.9262537002212  25.8992247936047 16.2283106367551  25.8992247936047 11.6666666924779  L 25.8992247936047 6.71091444137168  Z M 11.3875968866279 10.8407079646018  C 11.3875968866279 12.2092011500232  10.3047507001722 13.3185840707965  8.96899223546512 13.3185840707965  C 7.63323377075808 13.3185840707965  6.55038758430233 12.2092011500232  6.55038758430233 10.8407079646018  C 6.55038758430233 9.47221477918034  7.63323377075808 8.36283185840708  8.96899223546512 8.36283185840708  C 10.3047507001722 8.36283185840708  11.3875968866279 9.47221477918034  11.3875968866279 10.8407079646018  Z M 19.4496124156977 10.8407079646018  C 19.4496124156977 12.2092011500232  18.3667662292419 13.3185840707965  17.0310077645349 13.3185840707965  C 15.6952492998279 13.3185840707965  14.6124031133721 12.2092011500232  14.6124031133721 10.8407079646018  C 14.6124031133721 9.47221477918034  15.6952492998279 8.36283185840708  17.0310077645349 8.36283185840708  C 18.3667662292419 8.36283185840708  19.4496124156977 9.47221477918034  19.4496124156977 10.8407079646018  Z M 25.8992247936046 34.7935103373894  L 0.100775206395347 34.7935103373894  C 0.10077520639535 27.4948800222693  5.87595486185289 21.5781711172566  13 21.5781711172566  C 20.1240451381471 21.5781711172566  25.8992247936046 27.4948800222693  25.8992247936046 34.7935103373894  Z " fill-rule="nonzero" fill="#ffffff" stroke="none" transform="matrix(1 0 0 1 12 68 )" />
  </g>
</svg>