<?xml version="1.0" encoding="utf-8"?>
<svg version="1.1" xmlns:xlink="http://www.w3.org/1999/xlink" width="33px" height="33px" xmlns="http://www.w3.org/2000/svg">
  <g transform="matrix(1 0 0 1 -241 -69 )">
    <path d="M 0 16.4422164634146  C 0 7.36134756097561  7.387294921875 0  16.5 0  C 25.612705078125 0  33 7.36134756097561  33 16.4422164634146  C 33 25.5255335365854  25.612705078125 32.886881097561  16.5 32.886881097561  C 7.387294921875 32.886881097561  0 25.5255  0 16.4421829268293  Z M 13.5135 22.6972256097561  L 13.5135 22.6947774390244  C 13.9448525390625 23.1363201219512  14.652 23.1559725609756  15.1045576171875 22.7340487804878  L 25.916794921875 12.7161676829268  C 26.1455770300698 12.5070573222646  26.276727197691 12.2055338597744  26.276727197691 11.8886580576286  C 26.276727197691 11.5999395784553  26.1677844260321 11.3227658259254  25.9733525390625 11.1168079268293  C 25.5375807809394 10.6589631498058  24.8349961273918 10.632130524435  24.3681474609375 11.0555030487805  L 14.4068525390625 20.3522134146341  L 9.730294921875 15.5517865853659  C 9.44193060235837 15.2546887114155  9.02636209684492 15.134041015108  8.6318525390625 15.232887195122  C 8.24128051032569 15.3256101888085  7.92830297227333 15.6288412484359  7.8115576171875 16.027637195122  C 7.700794921875 16.4201158536585  7.809205078125 16.8395579268293  8.0944423828125 17.131493902439  L 13.5135 22.6972256097561  Z " fill-rule="nonzero" fill="#ffffff" stroke="none" transform="matrix(1 0 0 1 241 69 )" />
  </g>
</svg>