<?xml version="1.0" encoding="utf-8"?>
<svg version="1.1" xmlns:xlink="http://www.w3.org/1999/xlink" width="33px" height="32px" xmlns="http://www.w3.org/2000/svg">
  <g transform="matrix(1 0 0 1 -9 -139 )">
    <path d="M 28.5326530752551 32  C 31.5857142857143 32  33.5612245178571 28.8  32.3040816466837 25.9555555416667  L 20.2714285714286 2.311111125  C 18.6551020408163 -0.711111083333333  14.3448979591837 -0.711111083333333  12.9081632793367 2.311111125  L 0.695918353316326 25.9555555416667  C -0.561224517857143 28.8  1.41428571428571 32  4.4673469247449 32  L 28.5326530752551 32  Z M 18.2959183813776 24.888888875  C 18.2959183813776 25.4222222083333  18.1163265306122 25.77777775  17.7571428711735 26.1333333333333  C 17.3979592117347 26.488888875  17.0387755102041 26.6666666666667  16.5 26.6666666666667  C 15.9612244897959 26.6666666666667  15.6020408303571 26.488888875  15.2428571288265 26.1333333333333  C 14.8836734693878 25.7777777916667  14.7040816186224 25.4222222083333  14.7040816186224 24.888888875  C 14.7040816186224 24.3555555416667  14.8836734693878 24  15.2428571288265 23.6444444583333  C 15.6020407882653 23.2888889166667  15.9612244897959 23.111111125  16.5 23.111111125  C 17.0387755102041 23.111111125  17.3979591696429 23.2888889166667  17.7571428711735 23.6444444583333  C 18.1163265306122 24  18.2959183813776 24.3555555833333  18.2959183813776 24.888888875  Z M 18 8.888888875  L 18 21.3333333333333  L 15 21.3333333333333  L 15 8.888888875  L 18 8.888888875  Z " fill-rule="nonzero" fill="#ffffff" stroke="none" transform="matrix(1 0 0 1 9 139 )" />
  </g>
</svg>