<?xml version="1.0" encoding="utf-8"?>
<svg version="1.1" xmlns:xlink="http://www.w3.org/1999/xlink" width="33px" height="33px" xmlns="http://www.w3.org/2000/svg">
  <g transform="matrix(1 0 0 1 -9 -69 )">
    <path d="M 33 16.5  C 33 7.38730162779191  25.6126983722081 0  16.5 0  C 7.38730162779191 0  0 7.38730162779191  0 16.5  C 0 25.6126983722081  7.38730162779191 33  16.5 33  C 25.6126983722081 33  33 25.6126983722081  33 16.5  Z M 16.5054417679899 24.7500077192306  C 16.5036278425893 24.7500077192306  16.5018139181007 24.7500051461512  16.5 24.75  C 16.4944444891888 24.7500477610116  16.488888798742 24.7500716418484  16.4833330826327 24.7500716418484  C 15.4125910238982 24.7500716418484  14.5445830826327 23.8820637005828  14.5445830826327 22.8113216418484  C 14.5445830826327 21.7405795831139  15.4125910238982 20.8725716418484  16.4833330826327 20.8725716418484  C 17.5060009187862 20.8725716418484  18.3528105393743 21.6669200059103  18.418125 22.6875  C 18.4217515578775 22.7355421512983  18.4235667679899 22.7837038833853  18.4235667679899 22.8318827192306  C 18.4235667679899 23.8912339049998  17.5647929537591 24.7500077192306  16.5054417679899 24.7500077192306  Z M 18.5625 9.549375  L 18.35625 17.263125  C 18.30146112006 18.247822951216  17.4862198318794 19.0177730567199  16.5 19.01625  C 15.5175757269034 19.0172427019787  14.7085284209123 18.2445570726614  14.664375 17.263125  L 14.4375 9.549375  C 14.4375 8.41028770347399  15.360912703474 7.486875  16.5 7.486875  C 17.639087296526 7.486875  18.5625 8.41028770347399  18.5625 9.549375  Z " fill-rule="nonzero" fill="#ffffff" stroke="none" transform="matrix(1 0 0 1 9 69 )" />
  </g>
</svg>