<svg width="14" height="14" viewBox="0 0 14 14" fill="none" xmlns="http://www.w3.org/2000/svg">
<path fill-rule="evenodd" clip-rule="evenodd" d="M6.99998 2.91659C5.87241 2.91659 4.95831 3.83068 4.95831 4.95825C4.95831 6.08583 5.87241 6.99992 6.99998 6.99992C8.12755 6.99992 9.04165 6.08583 9.04165 4.95825C9.04165 3.83068 8.12755 2.91659 6.99998 2.91659ZM6.12498 4.95825C6.12498 4.47501 6.51674 4.08325 6.99998 4.08325C7.48322 4.08325 7.87498 4.47501 7.87498 4.95825C7.87498 5.44149 7.48322 5.83325 6.99998 5.83325C6.51674 5.83325 6.12498 5.44149 6.12498 4.95825Z" fill="currentColor"/>
<path fill-rule="evenodd" clip-rule="evenodd" d="M2.62498 4.86544C2.62498 2.48691 4.59745 0.583252 6.99998 0.583252C9.40251 0.583252 11.375 2.48691 11.375 4.86544C11.375 6.53804 10.2838 8.01768 9.3146 9.01722C8.81697 9.53044 8.32143 9.94768 7.95104 10.2364C7.76538 10.3811 7.60995 10.4945 7.49982 10.5724C7.44472 10.6114 7.40088 10.6415 7.37016 10.6624C7.35479 10.6728 7.3427 10.6809 7.33412 10.6866L7.32389 10.6934L7.32081 10.6954L7.31978 10.6961C7.31978 10.6961 7.3191 10.6966 6.99998 10.2083L6.68056 10.6964L6.67915 10.6954L6.67606 10.6934L6.66584 10.6866C6.65726 10.6809 6.64517 10.6728 6.6298 10.6624C6.59908 10.6415 6.55524 10.6114 6.50014 10.5724C6.39001 10.4945 6.23458 10.3811 6.04892 10.2364C5.67853 9.94768 5.18299 9.53044 4.68536 9.01722C3.71616 8.01768 2.62498 6.53804 2.62498 4.86544ZM6.99998 9.49394C7.06922 9.44269 7.14779 9.38327 7.23381 9.31622C7.57437 9.05077 8.02674 8.66947 8.47703 8.20508C9.40366 7.24942 10.2083 6.05766 10.2083 4.86544C10.2083 3.15833 8.7856 1.74992 6.99998 1.74992C5.21435 1.74992 3.79165 3.15833 3.79165 4.86544C3.79165 6.05766 4.5963 7.24942 5.52293 8.20508C5.97322 8.66947 6.42559 9.05077 6.76615 9.31622C6.85217 9.38327 6.93074 9.44269 6.99998 9.49394Z" fill="currentColor"/>
<path d="M6.68056 10.6964C6.87444 10.8231 7.12522 10.8233 7.3191 10.6966L6.99998 10.2083C6.68086 10.6966 6.68056 10.6964 6.68056 10.6964Z" fill="currentColor"/>
<path d="M3.60154 9.94526L3.04281 10.1129C2.54533 10.2621 2.18524 10.4283 1.96253 10.5862C1.80936 10.6949 1.76532 10.7658 1.75338 10.7916C1.76532 10.8173 1.80936 10.8883 1.96254 10.997C2.18524 11.1549 2.54533 11.321 3.04281 11.4703C4.03034 11.7665 5.42956 11.9582 6.99998 11.9582C8.5704 11.9582 9.96962 11.7665 10.9572 11.4703C11.4546 11.321 11.8147 11.1549 12.0374 10.997C12.1906 10.8883 12.2346 10.8173 12.2466 10.7916C12.2346 10.7658 12.1906 10.6949 12.0374 10.5862C11.8147 10.4283 11.4546 10.2621 10.9571 10.1129L10.3984 9.94527L10.7336 8.8278L11.2924 8.99542C11.8505 9.16287 12.3447 9.37384 12.7124 9.63461C13.0649 9.88463 13.4166 10.2671 13.4166 10.7916C13.4166 11.316 13.0649 11.6985 12.7124 11.9486C12.3447 12.2093 11.8505 12.4203 11.2924 12.5877C10.1687 12.9249 8.65123 13.1249 6.99998 13.1249C5.34873 13.1249 3.83129 12.9249 2.70757 12.5877C2.14942 12.4203 1.65525 12.2093 1.28758 11.9486C0.935072 11.6985 0.583313 11.316 0.583313 10.7916C0.583313 10.2672 0.935079 9.88463 1.28758 9.63461C1.65525 9.37384 2.14942 9.16287 2.70757 8.99542L3.2663 8.8278L3.60154 9.94526Z" fill="currentColor"/>
</svg>
