<svg width="16" height="16" viewBox="0 0 16 16" fill="none" xmlns="http://www.w3.org/2000/svg">
<path d="M6.4668 8.51465C7.13479 8.51465 7.67676 9.05661 7.67676 9.72461V12.9814C7.67659 13.6493 7.13469 14.1914 6.4668 14.1914H3.20996C2.54225 14.1912 2.00016 13.6492 2 12.9814V9.72461C2 9.05672 2.54214 8.51484 3.20996 8.51465H6.4668ZM13.5244 12.8574C13.8924 12.8577 14.1914 13.1564 14.1914 13.5244C14.1912 13.8922 13.8922 14.1911 13.5244 14.1914H9.18164C8.81359 14.1914 8.51488 13.8924 8.51465 13.5244C8.51465 13.1562 8.81345 12.8574 9.18164 12.8574H13.5244ZM3.33398 12.8574H6.34277V9.84863H3.33398V12.8574ZM13.5234 10.6855C13.8916 10.6855 14.1904 10.9844 14.1904 11.3525C14.1904 11.7207 13.8916 12.0195 13.5234 12.0195H11.3525C10.9845 12.0194 10.6855 11.7206 10.6855 11.3525C10.6856 10.9845 10.9845 10.6857 11.3525 10.6855H13.5234ZM13.5244 8.51465C13.8924 8.51491 14.1914 8.81361 14.1914 9.18164C14.1912 9.54953 13.8923 9.84837 13.5244 9.84863H9.18164C8.81355 9.84863 8.51481 9.54969 8.51465 9.18164C8.51465 8.81345 8.81345 8.51465 9.18164 8.51465H13.5244ZM6.4668 2C7.13466 2 7.67654 2.54216 7.67676 3.20996V6.4668C7.67676 7.13479 7.13479 7.67676 6.4668 7.67676H3.20996C2.54215 7.67657 2 7.13468 2 6.4668V3.20996C2.00022 2.54227 2.54227 2.00019 3.20996 2H6.4668ZM12.9814 2C13.6491 2.0002 14.1912 2.54228 14.1914 3.20996V6.4668C14.1914 7.13467 13.6493 7.67656 12.9814 7.67676H9.72461C9.05662 7.67676 8.51465 7.13479 8.51465 6.4668V3.20996C8.51487 2.54216 9.05674 2 9.72461 2H12.9814ZM3.33398 6.34277H6.34277V3.33398H3.33398V6.34277ZM9.84863 6.34277H12.8574V3.33398H9.84863V6.34277Z" fill="currentColor"/>
</svg>
