<svg width="20" height="20" viewBox="0 0 20 20" fill="none" xmlns="http://www.w3.org/2000/svg">
<path d="M5.22993 4.23077C5.22993 4.5848 5.50849 4.8718 5.85211 4.8718H13.7329C15.9092 4.8718 17.6734 6.68946 17.6734 8.93163C17.6734 11.1738 15.9092 12.9915 13.7329 12.9915H3.20635L4.21814 11.949C4.46111 11.6987 4.46111 11.2928 4.21814 11.0425C3.97517 10.7921 3.58123 10.7921 3.33826 11.0425L1.26435 13.1792C1.02138 13.4295 1.02138 13.8354 1.26435 14.0858L3.33826 16.2225C3.58123 16.4728 3.97517 16.4728 4.21814 16.2225C4.46111 15.9722 4.46111 15.5663 4.21814 15.316L3.20635 14.2735H13.7329C16.5964 14.2735 18.9177 11.8819 18.9177 8.93163C18.9177 5.9814 16.5964 3.58975 13.7329 3.58975H5.85211C5.50849 3.58975 5.22993 3.87674 5.22993 4.23077Z" fill="currentColor"/>
<path fill-rule="evenodd" clip-rule="evenodd" d="M4.98106 4.23077C4.98106 3.73513 5.37104 3.33334 5.85211 3.33334H13.7329C16.7338 3.33334 19.1666 5.83979 19.1666 8.93163C19.1666 12.0235 16.7338 14.5299 13.7329 14.5299H3.80717L4.39412 15.1347C4.73428 15.4851 4.73428 16.0533 4.39412 16.4038C4.05396 16.7543 3.50244 16.7543 3.16228 16.4038L1.08837 14.2671C0.748211 13.9166 0.748211 13.3484 1.08837 12.9979L3.16228 10.8611C3.50244 10.5107 4.05396 10.5107 4.39412 10.8611C4.73428 11.2116 4.73428 11.7798 4.39412 12.1303L3.80717 12.735H13.7329C15.7717 12.735 17.4245 11.0322 17.4245 8.93163C17.4245 6.83107 15.7717 5.12821 13.7329 5.12821H5.85211C5.37104 5.12821 4.98106 4.72641 4.98106 4.23077ZM3.20635 12.9915L4.21814 11.949C4.46111 11.6987 4.46111 11.2928 4.21814 11.0425C3.97517 10.7921 3.58123 10.7921 3.33826 11.0425L1.26435 13.1792C1.02138 13.4295 1.02138 13.8354 1.26435 14.0858L3.33826 16.2225C3.58123 16.4728 3.97517 16.4728 4.21814 16.2225C4.46111 15.9722 4.46111 15.5663 4.21814 15.316L3.20635 14.2735H13.7329C16.5964 14.2735 18.9177 11.8819 18.9177 8.93163C18.9177 5.9814 16.5964 3.58975 13.7329 3.58975H5.85211C5.50849 3.58975 5.22993 3.87674 5.22993 4.23077C5.22993 4.5848 5.50849 4.8718 5.85211 4.8718H13.7329C15.9092 4.8718 17.6734 6.68946 17.6734 8.93163C17.6734 11.1738 15.9092 12.9915 13.7329 12.9915H3.20635Z" fill="currentColor"/>
</svg>
