<svg width="20" height="20" viewBox="0 0 20 20" fill="none" xmlns="http://www.w3.org/2000/svg">
<path d="M15.1877 3.65255C14.8791 3.28018 14.3238 3.22578 13.947 3.53059C13.5701 3.83546 13.515 4.3842 13.8235 4.7565L15.6276 6.93327H2.54827C2.06125 6.93327 1.66675 7.32306 1.66675 7.80427C1.66675 8.28548 2.06125 8.67527 2.54827 8.67527H17.4519C17.9389 8.67527 18.3334 8.28548 18.3334 7.80427C18.3334 7.62449 18.278 7.45713 18.1839 7.31899C18.1527 7.2486 18.1097 7.18178 18.0599 7.12022L15.1877 3.65255Z" fill="currentColor"/>
<path d="M2.54827 12.1592C2.06125 12.1592 1.66675 12.549 1.66675 13.0302C1.66675 13.21 1.72215 13.3773 1.81625 13.5155C1.85871 13.6118 1.92149 13.7003 1.99749 13.7775L5.50914 17.2452C5.68107 17.4151 5.90609 17.5 6.13279 17.5C6.35948 17.5 6.58451 17.4151 6.75643 17.2452C7.10038 16.9054 7.09986 16.3543 6.75638 16.0128L4.61561 13.9012H17.4499C17.9369 13.9012 18.3314 13.5115 18.3314 13.0302C18.3314 12.5493 17.9392 12.1592 17.4519 12.1592H2.54827Z" fill="currentColor"/>
</svg>
