<svg width="16" height="16" viewBox="0 0 16 16" fill="none" xmlns="http://www.w3.org/2000/svg">
<path d="M8 16C12.4183 16 16 12.4183 16 8C16 3.58172 12.4183 0 8 0C3.58172 0 0 3.58172 0 8C0 12.4183 3.58172 16 8 16ZM12.8207 6.12155L8.598 10.6459C8.10416 11.175 7.27839 11.2135 6.73744 10.7327L4.22376 8.49827C3.94857 8.25366 3.92378 7.83228 4.16839 7.55709C4.41301 7.2819 4.83439 7.25712 5.10958 7.50173L7.62326 9.73611L11.846 5.21179C12.0972 4.94262 12.519 4.92807 12.7882 5.1793C13.0574 5.43052 13.0719 5.85238 12.8207 6.12155Z" fill="#0BF9FE"/>
</svg>
