<svg width="24" height="24" viewBox="0 0 24 24" fill="none" xmlns="http://www.w3.org/2000/svg">
<path d="M12 24C18.6274 24 24 18.6274 24 12C24 5.37258 18.6274 0 12 0C5.37258 0 0 5.37258 0 12C0 18.6274 5.37258 24 12 24ZM17.0678 7.16808C17.4583 7.5586 17.4583 8.19177 17.0678 8.58229L13.4144 12.2357L16.8321 15.6534C17.2226 16.0439 17.2226 16.6771 16.8321 17.0676C16.4416 17.4581 15.8084 17.4581 15.4179 17.0676L12.0002 13.6499L8.58251 17.0676C8.19199 17.4581 7.55883 17.4581 7.1683 17.0676C6.77778 16.677 6.77778 16.0439 7.1683 15.6534L10.586 12.2357L6.93261 8.58233C6.54209 8.19181 6.54209 7.55864 6.93261 7.16812C7.32314 6.77759 7.9563 6.77759 8.34683 7.16812L12.0002 10.8215L15.6536 7.16808C16.0441 6.77755 16.6773 6.77755 17.0678 7.16808Z" fill="currentColor"/>
</svg>
