<svg width="14" height="14" viewBox="0 0 14 14" fill="none" xmlns="http://www.w3.org/2000/svg">
<path d="M8.15646 6.99992L11.4266 3.72982C11.5025 3.6539 11.5628 3.56375 11.604 3.46453C11.6451 3.36531 11.6663 3.25895 11.6664 3.15154C11.6664 3.04412 11.6453 2.93775 11.6042 2.83849C11.5632 2.73924 11.5029 2.64904 11.427 2.57306C11.3511 2.49707 11.261 2.43679 11.1617 2.39564C11.0625 2.3545 10.9562 2.3333 10.8487 2.33325C10.7413 2.33321 10.635 2.35432 10.5357 2.39539C10.4364 2.43645 10.3462 2.49667 10.2703 2.57259L7.00016 5.84456L3.73006 2.57353C3.57673 2.42007 3.36871 2.33381 3.15178 2.33372C2.93484 2.33363 2.72676 2.41972 2.5733 2.57306C2.41984 2.72639 2.33358 2.93441 2.3335 3.15134C2.33341 3.36828 2.4195 3.57636 2.57284 3.72982L5.8448 6.99992L2.57377 10.27C2.42031 10.4234 2.33405 10.6314 2.33396 10.8483C2.33388 11.0652 2.41997 11.2733 2.5733 11.4268C2.72664 11.5802 2.93465 11.6665 3.15159 11.6666C3.36852 11.6667 3.57661 11.5806 3.73006 11.4272L7.00016 8.15528L10.2703 11.4254C10.3462 11.5014 10.4363 11.5617 10.5356 11.6028C10.6348 11.6439 10.7411 11.6651 10.8485 11.6652C10.956 11.6652 11.0623 11.6441 11.1616 11.6031C11.2608 11.562 11.351 11.5018 11.427 11.4258C11.503 11.3499 11.5633 11.2598 11.6044 11.1606C11.6456 11.0613 11.6668 10.955 11.6668 10.8476C11.6669 10.7401 11.6458 10.6338 11.6047 10.5345C11.5636 10.4353 11.5034 10.3451 11.4275 10.2691L8.15552 6.99992H8.15646Z" fill="currentColor"/>
</svg>
