<svg width="16" height="16" viewBox="0 0 16 16" fill="none" xmlns="http://www.w3.org/2000/svg">
<path d="M14.6667 6.32173C12.4084 4.18163 9.37297 3.33526 6.5 3.78266" stroke="currentColor" stroke-width="1.33333" stroke-linecap="round" stroke-linejoin="round"/>
<path d="M12.6667 8.5997C11.7622 7.6952 10.6605 7.10813 9.5 6.8385" stroke="currentColor" stroke-width="1.33333" stroke-linecap="round" stroke-linejoin="round"/>
<path d="M3.3335 8.59967C3.77603 8.15713 4.2658 7.79057 4.78653 7.5" stroke="currentColor" stroke-width="1.33333" stroke-linecap="round" stroke-linejoin="round"/>
<path d="M5.3335 10.7713C5.8131 10.2917 6.3897 9.96826 7.00016 9.80103" stroke="currentColor" stroke-width="1.33333" stroke-linecap="round" stroke-linejoin="round"/>
<path fill-rule="evenodd" clip-rule="evenodd" d="M7.99984 13.3333C8.46007 13.3333 8.83317 12.9602 8.83317 12.5C8.83317 12.0397 8.46007 11.6666 7.99984 11.6666C7.5396 11.6666 7.1665 12.0397 7.1665 12.5C7.1665 12.9602 7.5396 13.3333 7.99984 13.3333Z" fill="currentColor"/>
<path d="M13.3332 13.3333L2.6665 2.66663" stroke="currentColor" stroke-width="1.33333" stroke-linecap="round" stroke-linejoin="round"/>
<path d="M1.3335 6.32174C1.52976 6.13574 1.7319 5.95951 1.9393 5.79308C2.1223 5.64618 2.3094 5.50691 2.50016 5.37524" stroke="currentColor" stroke-width="1.33333" stroke-linecap="round" stroke-linejoin="round"/>
</svg>
