<svg width="24" height="24" viewBox="0 0 24 24" fill="none" xmlns="http://www.w3.org/2000/svg">
<path d="M17.9995 6.99963C18.5517 6.99963 18.9993 7.44752 18.9995 7.99963V20.3844C18.9995 21.7578 17.9487 22.9996 16.4995 22.9996H7.49951C6.05047 22.9994 4.99951 21.7577 4.99951 20.3844V7.99963C4.99971 7.44764 5.44752 6.99983 5.99951 6.99963H17.9995ZM6.99951 20.3844C6.99951 20.7951 7.29187 20.9994 7.49951 20.9996H16.4995C16.7072 20.9996 16.9995 20.7954 16.9995 20.3844V8.99963H6.99951V20.3844ZM13.2925 11.7936C13.683 11.4031 14.316 11.4031 14.7065 11.7936C15.0969 12.1841 15.097 12.8172 14.7065 13.2076L13.4136 14.5006L14.7065 15.7936C15.0969 16.1841 15.097 16.8172 14.7065 17.2076C14.316 17.598 13.683 17.598 13.2925 17.2076L11.9995 15.9147L10.7065 17.2076C10.316 17.598 9.68297 17.598 9.29248 17.2076C8.902 16.8172 8.90208 16.1841 9.29248 15.7936L10.5854 14.5006L9.29248 13.2076C8.902 12.8172 8.90208 12.1841 9.29248 11.7936C9.683 11.4031 10.316 11.4031 10.7065 11.7936L11.9995 13.0865L13.2925 11.7936ZM19.9995 4.49963C20.5518 4.49963 20.9995 4.94735 20.9995 5.49963C20.9995 6.05192 20.5518 6.49963 19.9995 6.49963H3.99951C3.44723 6.49963 2.99951 6.05192 2.99951 5.49963C2.99951 4.94735 3.44723 4.49963 3.99951 4.49963H19.9995ZM14.9985 1.49963C15.5508 1.49963 15.9985 1.94735 15.9985 2.49963C15.9985 3.05192 15.5508 3.49963 14.9985 3.49963H8.99854C8.44631 3.49957 7.99854 3.05188 7.99854 2.49963C7.99854 1.94739 8.44631 1.4997 8.99854 1.49963H14.9985Z" fill="currentColor"/>
</svg>
