<svg width="16" height="16" viewBox="0 0 16 16" fill="none" xmlns="http://www.w3.org/2000/svg">
<path d="M2.66732 2.0229V13.9758C2.6806 13.9857 2.70826 13.9993 2.75065 13.9993H13.2507C13.293 13.9993 13.3207 13.9857 13.334 13.9758V2.0229C13.3207 2.01298 13.293 1.99935 13.2507 1.99935H2.75065C2.70826 1.99935 2.6806 2.01298 2.66732 2.0229ZM1.33398 1.99935C1.33398 1.19132 2.04424 0.666016 2.75065 0.666016H13.2507C13.9571 0.666016 14.6673 1.19132 14.6673 1.99935V13.9993C14.6673 14.8074 13.9571 15.3327 13.2507 15.3327H2.75065C2.04424 15.3327 1.33398 14.8074 1.33398 13.9993V1.99935ZM6.00065 4.66602C6.00065 4.29783 6.29913 3.99935 6.66732 3.99935H11.334C11.7022 3.99935 12.0007 4.29783 12.0007 4.66602C12.0007 5.03421 11.7022 5.33268 11.334 5.33268H6.66732C6.29913 5.33268 6.00065 5.03421 6.00065 4.66602ZM6.66732 7.33268C6.29913 7.33268 6.00065 7.63116 6.00065 7.99935C6.00065 8.36754 6.29913 8.66602 6.66732 8.66602H11.334C11.7022 8.66602 12.0007 8.36754 12.0007 7.99935C12.0007 7.63116 11.7022 7.33268 11.334 7.33268H6.66732ZM6.00065 11.3327C6.00065 10.9645 6.29913 10.666 6.66732 10.666H11.334C11.7022 10.666 12.0007 10.9645 12.0007 11.3327C12.0007 11.7009 11.7022 11.9993 11.334 11.9993H6.66732C6.29913 11.9993 6.00065 11.7009 6.00065 11.3327ZM5.33398 4.66602C5.33398 5.03422 5.03552 5.33268 4.66732 5.33268C4.29912 5.33268 4.00065 5.03422 4.00065 4.66602C4.00065 4.29782 4.29912 3.99935 4.66732 3.99935C5.03552 3.99935 5.33398 4.29782 5.33398 4.66602ZM4.66732 8.66602C5.03552 8.66602 5.33398 8.36755 5.33398 7.99935C5.33398 7.63115 5.03552 7.33268 4.66732 7.33268C4.29912 7.33268 4.00065 7.63115 4.00065 7.99935C4.00065 8.36755 4.29912 8.66602 4.66732 8.66602ZM5.33398 11.3327C5.33398 11.7009 5.03552 11.9993 4.66732 11.9993C4.29912 11.9993 4.00065 11.7009 4.00065 11.3327C4.00065 10.9645 4.29912 10.666 4.66732 10.666C5.03552 10.666 5.33398 10.9645 5.33398 11.3327Z" fill="currentColor"/>
</svg>
