<svg width="16" height="16" viewBox="0 0 16 16" fill="none" xmlns="http://www.w3.org/2000/svg">
<path d="M7.3914 3.28873V9.87286L5.70126 8.13764C5.46458 7.89464 5.08084 7.89464 4.84416 8.13764C4.60748 8.38063 4.60748 8.7746 4.84416 9.01759L7.53726 11.7825C7.64841 11.9156 7.81335 11.9998 7.99746 11.9998L7.99872 11.9998C8.15425 12.0002 8.30987 11.9394 8.42853 11.8176L11.1558 9.01759C11.3925 8.7746 11.3925 8.38063 11.1558 8.13764C10.9191 7.89464 10.5354 7.89464 10.2987 8.13764L8.60352 9.87802V3.28873C8.60352 2.94508 8.33218 2.6665 7.99746 2.6665C7.66275 2.6665 7.3914 2.94508 7.3914 3.28873Z" fill="currentColor"/>
<path d="M14.6666 8.6665C14.6666 8.29831 14.3682 7.99984 14 7.99984C13.6318 7.99984 13.3333 8.29831 13.3333 8.6665V13.9998H2.66665V8.66927C2.66665 8.30108 2.36817 8.0026 1.99998 8.0026C1.63179 8.0026 1.33331 8.30108 1.33331 8.66927V14.6665C1.33331 15.0347 1.63179 15.3332 1.99998 15.3332H14C14.3682 15.3332 14.6666 15.0347 14.6666 14.6665V8.6665Z" fill="currentColor"/>
</svg>
