<svg width="16" height="16" viewBox="0 0 16 16" fill="none" xmlns="http://www.w3.org/2000/svg">
<path d="M8.33272 10.3043C8.20728 10.4297 8.05477 10.5247 7.8869 10.5821L6.37531 11.0983C5.95616 11.2415 5.49207 11.1337 5.17887 10.8205C4.86567 10.5073 4.75791 10.0433 4.90105 9.62409L5.41727 8.11248C5.4746 7.9446 5.56964 7.79208 5.69508 7.66664L8.1835 5.17822C8.637 4.72472 9.37227 4.72472 9.82577 5.17822L10.8211 6.17359C11.0389 6.39137 11.1613 6.68674 11.1613 6.99472C11.1613 7.30271 11.0389 7.59808 10.8211 7.81586L8.33272 10.3043ZM6 9.99938L7.51158 9.48314L10 6.99472L9.00463 5.99936L6.51621 8.48777L6 9.99938Z" fill="currentColor"/>
<path d="M5.33333 11.666C4.96514 11.666 4.66667 11.9645 4.66667 12.3327C4.66667 12.7009 4.96514 12.9993 5.33333 12.9993H9.66667C10.0349 12.9993 10.3333 12.7009 10.3333 12.3327C10.3333 11.9645 10.0349 11.666 9.66667 11.666H5.33333Z" fill="currentColor"/>
<path d="M2 1.99935C2 1.26297 2.59695 0.666016 3.33333 0.666016H9C9.18899 0.666016 9.3691 0.74623 9.49553 0.886706L13.8289 4.22004C13.939 4.34246 14 4.50132 14 4.66602V14.666C14 15.0342 13.7015 15.3327 13.3333 15.3327H3.33333C2.59696 15.3327 2 14.7357 2 13.9993V1.99935ZM8.70309 1.99935H3.33333V13.9993H12.6667V4.92184L8.70309 1.99935Z" fill="currentColor"/>
</svg>
