<svg width="20" height="20" viewBox="0 0 20 20" fill="none" xmlns="http://www.w3.org/2000/svg">
<path d="M10 20C15.5228 20 20 15.5228 20 10C20 4.47715 15.5228 0 10 0C4.47715 0 0 4.47715 0 10C0 15.5228 4.47715 20 10 20ZM14.2232 5.9734C14.5486 6.29883 14.5486 6.82647 14.2232 7.15191L11.1787 10.1964L14.0268 13.0445C14.3522 13.3699 14.3522 13.8976 14.0268 14.223C13.7013 14.5484 13.1737 14.5484 12.8482 14.223L10.0002 11.3749L7.1521 14.223C6.82666 14.5484 6.29902 14.5484 5.97358 14.223C5.64815 13.8975 5.64815 13.3699 5.97358 13.0445L8.82164 10.1964L5.77718 7.15194C5.45174 6.82651 5.45174 6.29887 5.77718 5.97343C6.10261 5.64799 6.63025 5.64799 6.95569 5.97343L10.0002 9.0179L13.0447 5.9734C13.3701 5.64796 13.8977 5.64796 14.2232 5.9734Z" fill="#ED2C40"/>
</svg>
