<svg t="1728201182861" class="icon" viewBox="0 0 1024 1024" version="1.1" xmlns="http://www.w3.org/2000/svg" p-id="2382" width="200" height="200"><path d="M64 170.666667a85.333333 85.333333 0 0 1 85.333333-85.333334h256a42.666667 42.666667 0 0 1 32.768 15.36l93.866667 112.64H874.666667a85.333333 85.333333 0 0 1 85.333333 85.333334v554.666666a85.333333 85.333333 0 0 1-85.333333 85.333334h-725.333334a85.333333 85.333333 0 0 1-85.333333-85.333334V170.666667z m321.365333 0H149.333333v682.666666h725.333334V298.666667H512a42.666667 42.666667 0 0 1-32.768-15.36L385.365333 170.666667z" fill="currentcolor" p-id="2383"></path><path d="M553.386667 468.053333a32 32 0 0 0 0 45.226667L637.44 597.333333l-84.053333 84.053334a32 32 0 1 0 45.226666 45.226666l106.666667-106.666666a32 32 0 0 0 0-45.226667l-106.666667-106.666667a32 32 0 0 0-45.226666 0z" fill="currentcolor" p-id="2384"></path><path d="M341.333333 437.333333a32 32 0 0 0-32 32v128c0 17.664 14.336 32 32 32h341.333334a32 32 0 0 0 0-64H373.333333V469.333333a32 32 0 0 0-32-32z" fill="currentcolor" p-id="2385"></path></svg>
