<svg width="24" height="24" viewBox="0 0 24 24" fill="none" xmlns="http://www.w3.org/2000/svg">
<path d="M7.76758 14.96C8.12086 14.6109 8.69054 14.6138 9.04004 14.9668C9.3894 15.3199 9.38599 15.8896 9.0332 16.2393L6.04199 19.2002H7.9502C8.44694 19.2004 8.85037 19.6029 8.85059 20.0996C8.85059 20.5965 8.44707 20.9998 7.9502 21H3.90039C3.40333 21 3 20.5967 3 20.0996V16.0498C3.00011 15.5528 3.4034 15.1494 3.90039 15.1494C4.3972 15.1496 4.80068 15.553 4.80078 16.0498V17.8965L7.76758 14.96ZM15.0088 14.9629C15.3602 14.6116 15.9308 14.6117 16.2822 14.9629L19.2002 17.8809V16.0498C19.2003 15.553 19.6028 15.1496 20.0996 15.1494C20.5966 15.1494 20.9999 15.5528 21 16.0498V20.0996C21 20.5967 20.5967 21 20.0996 21H16.0498C15.5528 20.9999 15.1494 20.5966 15.1494 20.0996C15.1496 19.6028 15.553 19.2003 16.0498 19.2002H17.9736L15.0088 16.2363C14.6576 15.8848 14.6574 15.3143 15.0088 14.9629ZM7.9502 3C8.44707 3.00021 8.85059 3.40346 8.85059 3.90039C8.85037 4.39714 8.44694 4.80057 7.9502 4.80078H6.08887L9.0332 7.71582C9.38604 8.06553 9.38955 8.63517 9.04004 8.98828C8.69059 9.34127 8.12088 9.34406 7.76758 8.99512L4.80078 6.05762V7.9502C4.80057 8.44694 4.39714 8.85037 3.90039 8.85059C3.40346 8.85059 3.00021 8.44707 3 7.9502V3.90039C3 3.76054 3.0319 3.62788 3.08887 3.50977C3.09403 3.49904 3.09888 3.4881 3.10449 3.47754C3.25308 3.19847 3.54448 3.00703 3.88086 3H7.9502ZM20.0996 3C20.5967 3 21 3.40333 21 3.90039V7.9502C20.9998 8.44707 20.5965 8.85059 20.0996 8.85059C19.6029 8.85037 19.2004 8.44694 19.2002 7.9502V6.02734L16.2363 8.99121C15.8848 9.34229 15.3142 9.34255 14.9629 8.99121C14.6119 8.63989 14.6121 8.07015 14.9629 7.71875L17.8809 4.80078H16.0498C15.553 4.80068 15.1496 4.3972 15.1494 3.90039C15.1494 3.4034 15.5528 3.00011 16.0498 3H20.0996Z" fill="currentColor" fill-opacity="0.8"/>
</svg>
