<svg width="26" height="26" viewBox="0 0 26 26" fill="none" xmlns="http://www.w3.org/2000/svg">
<g clip-path="url(#clip0_84258_74933)">
<path d="M16.7832 2.13281V23.9688H2.13281V2.13281H16.7832ZM17.5271 0.101562H1.38887C0.67793 0.101562 0.101562 0.78457 0.101562 1.625V24.4766C0.101562 25.317 0.67793 26 1.38887 26H17.5271C18.2381 26 18.8145 25.317 18.8145 24.4766V1.625C18.8145 0.78457 18.2381 0.101562 17.5271 0.101562Z" fill="currentColor"/>
<path d="M12.8223 18.8398V23.9434H6.09375V18.8398H12.8223ZM14.3711 16.8086H4.52207C4.09551 16.8086 4.0625 17.0498 4.0625 17.3469V25.4338C4.0625 25.7309 4.09805 25.9721 4.52207 25.9721H14.3711C14.7977 25.9721 14.8535 25.7309 14.8535 25.4338V17.3469C14.8535 17.0498 14.7977 16.8086 14.3711 16.8086ZM23.918 10.0293V23.9434H18.8424V10.0293H23.918ZM25.5404 7.99805H17.2021C16.8416 7.99805 16.8137 8.47031 16.8137 9.0543V24.9158C16.8137 25.4998 16.8416 25.9721 17.2021 25.9721H25.5404C25.901 25.9721 25.9492 25.4998 25.9492 24.9158V9.0543C25.9492 8.47031 25.901 7.99805 25.5404 7.99805ZM7.38867 5.66211H4.69727C4.13613 5.66211 3.68164 5.20762 3.68164 4.64648C3.68164 4.08535 4.13613 3.63086 4.69727 3.63086H7.38867C7.9498 3.63086 8.4043 4.08535 8.4043 4.64648C8.4043 5.20762 7.9498 5.66211 7.38867 5.66211ZM14.2441 5.66211H11.5527C10.9916 5.66211 10.5371 5.20762 10.5371 4.64648C10.5371 4.08535 10.9916 3.63086 11.5527 3.63086H14.2441C14.8053 3.63086 15.2598 4.08535 15.2598 4.64648C15.2598 5.20762 14.8053 5.66211 14.2441 5.66211ZM7.38867 9.64844H4.69727C4.13613 9.64844 3.68164 9.19395 3.68164 8.63281C3.68164 8.07168 4.13613 7.61719 4.69727 7.61719H7.38867C7.9498 7.61719 8.4043 8.07168 8.4043 8.63281C8.4043 9.19395 7.9498 9.64844 7.38867 9.64844ZM14.2441 9.64844H11.5527C10.9916 9.64844 10.5371 9.19395 10.5371 8.63281C10.5371 8.07168 10.9916 7.61719 11.5527 7.61719H14.2441C14.8053 7.61719 15.2598 8.07168 15.2598 8.63281C15.2598 9.19395 14.8053 9.64844 14.2441 9.64844ZM7.38867 13.6348H4.69727C4.13613 13.6348 3.68164 13.1803 3.68164 12.6191C3.68164 12.058 4.13613 11.6035 4.69727 11.6035H7.38867C7.9498 11.6035 8.4043 12.058 8.4043 12.6191C8.4043 13.1803 7.9498 13.6348 7.38867 13.6348ZM14.2441 13.6348H11.5527C10.9916 13.6348 10.5371 13.1803 10.5371 12.6191C10.5371 12.058 10.9916 11.6035 11.5527 11.6035H14.2441C14.8053 11.6035 15.2598 12.058 15.2598 12.6191C15.2598 13.1803 14.8053 13.6348 14.2441 13.6348Z" fill="currentColor"/>
<path d="M19.4492 14.1426H18.4412C17.8801 14.1426 17.4256 13.6881 17.4256 13.127C17.4256 12.5658 17.8801 12.1113 18.4412 12.1113H19.4492C20.0104 12.1113 20.4648 12.5658 20.4648 13.127C20.4648 13.6881 20.0104 14.1426 19.4492 14.1426ZM19.4492 18.6875H18.3574C17.7963 18.6875 17.3418 18.233 17.3418 17.6719C17.3418 17.1107 17.7963 16.6562 18.3574 16.6562H19.4492C20.0104 16.6562 20.4648 17.1107 20.4648 17.6719C20.4648 18.233 20.0104 18.6875 19.4492 18.6875ZM19.4492 23.2324H18.525C17.9639 23.2324 17.5094 22.7779 17.5094 22.2168C17.5094 21.6557 17.9639 21.2012 18.525 21.2012H19.4492C20.0104 21.2012 20.4648 21.6557 20.4648 22.2168C20.4648 22.7779 20.0104 23.2324 19.4492 23.2324Z" fill="currentColor"/>
</g>
<defs>
<clipPath id="clip0_84258_74933">
<rect width="26" height="26" fill="white"/>
</clipPath>
</defs>
</svg>
