<svg width="106" height="46" viewBox="0 0 106 46" fill="none" xmlns="http://www.w3.org/2000/svg">
<path d="M95.252 18.1984L95.2519 45.4944L-6.38819e-08 45.4944" stroke="currentColor"/>
<path fill-rule="evenodd" clip-rule="evenodd" d="M100.15 9.76263C100.15 7.06263 98.0495 4.96265 95.3495 4.96265C92.6495 4.96265 90.5496 7.06263 90.5496 9.76263C90.5496 12.4626 92.6495 14.5626 95.3495 14.5626C97.9495 14.5626 100.15 12.4626 100.15 9.76263Z" fill="currentColor"/>
<path d="M95.3495 19.4626C99.2495 19.4626 102.85 17.1626 104.35 13.5626C105.85 9.96263 105.05 5.66261 102.25 2.86261C98.4496 -0.937387 92.2495 -0.937363 88.4495 2.76264C84.6495 6.56264 84.6495 12.7626 88.3495 16.5626C90.2495 18.4626 92.7495 19.5626 95.3495 19.4626ZM95.3495 1.46265C99.9495 1.46265 103.65 5.26261 103.65 9.86261C103.65 14.4626 99.8496 18.1626 95.2496 18.1626C90.6496 18.1626 86.9495 14.3626 86.9495 9.86261C86.9495 5.16261 90.6495 1.46265 95.3495 1.46265Z" fill="currentColor"/>
</svg>
