<svg width="157" height="29" viewBox="0 0 157 29" fill="none" xmlns="http://www.w3.org/2000/svg">
<path d="M10 9V28H157" stroke="currentColor"/>
<path fill-rule="evenodd" clip-rule="evenodd" d="M14.5629 9.76263C14.5629 7.06263 12.4629 4.96265 9.76288 4.96265C7.06288 4.96265 4.96289 7.06263 4.96289 9.76263C4.96289 12.4626 7.06288 14.5626 9.76288 14.5626C12.3629 14.5626 14.5629 12.4626 14.5629 9.76263Z" fill="currentColor"/>
<path d="M9.76262 19.4626C13.6626 19.4626 17.2626 17.1626 18.7626 13.5626C20.2626 9.96263 19.4626 5.66261 16.6626 2.86261C12.8626 -0.937387 6.66263 -0.937363 2.86263 2.76264C-0.937372 6.56264 -0.937378 12.7626 2.76262 16.5626C4.66262 18.4626 7.16262 19.5626 9.76262 19.4626ZM9.76262 1.46265C14.3626 1.46265 18.0626 5.26261 18.0626 9.86261C18.0626 14.4626 14.2626 18.1626 9.66265 18.1626C5.06265 18.1626 1.36263 14.3626 1.36263 9.86261C1.36263 5.16261 5.06262 1.46265 9.76262 1.46265Z" fill="currentColor"/>
</svg>
