<svg width="16" height="15" viewBox="0 0 16 15" fill="none" xmlns="http://www.w3.org/2000/svg">
<path d="M1.63091 5.41692V12.7206H4.96364V8.85238C4.96364 8.10022 5.59858 7.49048 6.38182 7.49048H9.21818C10.0014 7.49048 10.6364 8.10022 10.6364 8.85238V12.7206H13.9691V5.41692L7.8 1.57548L1.63091 5.41692ZM9.21818 12.7206V8.85238H6.38182V12.7206H9.21818ZM6.27565 14.2962L5.31818 14.3L1.56 14.283C0.698436 14.283 0 13.6139 0 12.7886V5.38006C0 4.87422 0.267101 4.40271 0.709818 4.12703L6.94982 0.24144C7.4668 -0.0804796 8.1332 -0.08048 8.65018 0.241439L14.8902 4.12703C15.3329 4.40271 15.6 4.87422 15.6 5.38005V12.7886C15.6 13.6139 14.9016 14.283 14.04 14.283H9.64364L9.43739 14.2838C9.36594 14.2945 9.29273 14.3 9.21818 14.3H6.38182C6.34611 14.3 6.3107 14.2987 6.27565 14.2962Z" fill="currentColor"/>
</svg>
