<svg width="16" height="16" viewBox="0 0 16 16" fill="none" xmlns="http://www.w3.org/2000/svg">
<path d="M7.50391 1.03125C9.70391 1.03125 11.5039 2.83125 11.5039 5.03125C11.5038 6.43109 10.7038 7.73069 9.50391 8.43066C9.50391 8.43066 9.8558 8.61195 9.6748 9.00195C9.49395 9.38946 9.01099 9.24115 9.00488 9.23926C8.52888 9.10426 8.02491 9.03125 7.50391 9.03125C4.50401 9.03125 2.10406 11.4308 2.00391 14.4307C2.00391 14.7307 1.80391 14.9307 1.50391 14.9307C1.20393 14.9307 1.00393 14.731 1.00391 14.3311C1.10391 11.5311 2.90392 9.13106 5.50391 8.33105C4.30391 7.63105 3.50391 6.43066 3.50391 4.93066C3.50408 2.73082 5.30401 1.03125 7.50391 1.03125ZM13.292 6.15332C13.4198 6.16025 13.5401 6.21753 13.626 6.3125C14.0961 6.83388 14.4586 7.44352 14.6924 8.10547C14.9262 8.76752 15.0268 9.46984 14.9883 10.1709C14.9498 10.8718 14.7726 11.558 14.4678 12.1904C14.1629 12.8229 13.7363 13.3896 13.2119 13.8564C13.1164 13.9413 12.9909 13.9845 12.8633 13.9775C12.7358 13.9706 12.616 13.914 12.5303 13.8193C12.4878 13.7726 12.4548 13.7177 12.4336 13.6582C12.4125 13.5988 12.4038 13.5356 12.4072 13.4727C12.4107 13.4097 12.4267 13.3478 12.4541 13.291C12.4816 13.2341 12.5201 13.1825 12.5674 13.1406C12.9973 12.7578 13.3477 12.294 13.5977 11.7754C13.8477 11.2566 13.9929 10.6932 14.0244 10.1182C14.0559 9.54328 13.973 8.96769 13.7812 8.4248C13.5894 7.88185 13.2919 7.3817 12.9062 6.9541C12.8638 6.90735 12.8307 6.85249 12.8096 6.79297C12.7884 6.73351 12.7798 6.67043 12.7832 6.60742C12.7866 6.54437 12.8026 6.48263 12.8301 6.42578C12.8576 6.36893 12.8961 6.31822 12.9434 6.27637C13.0389 6.19109 13.1641 6.14646 13.292 6.15332ZM11.6475 7.62012C11.7753 7.62711 11.8955 7.68444 11.9814 7.7793C12.2594 8.08539 12.4733 8.44421 12.6113 8.83398C12.7493 9.22377 12.8087 9.637 12.7852 10.0498C12.7634 10.4631 12.6594 10.8685 12.4795 11.2412C12.2996 11.6138 12.0472 11.9467 11.7373 12.2207C11.642 12.3062 11.5165 12.3506 11.3887 12.3438C11.2608 12.3368 11.1402 12.2789 11.0547 12.1836C11.0125 12.1371 10.9801 12.0826 10.959 12.0234C10.9378 11.9639 10.9282 11.9 10.9316 11.8369C10.9351 11.7739 10.9511 11.712 10.9785 11.6553C11.006 11.5985 11.0446 11.5477 11.0918 11.5059C11.3072 11.3155 11.4824 11.0841 11.6074 10.8252C11.7324 10.5663 11.8052 10.2851 11.8203 9.99805C11.8523 9.41505 11.6527 8.85492 11.2607 8.41992C11.2184 8.37321 11.1862 8.31823 11.165 8.25879C11.1439 8.19929 11.1343 8.1363 11.1377 8.07324C11.1411 8.01021 11.1571 7.94843 11.1846 7.8916C11.212 7.83483 11.2506 7.784 11.2979 7.74219C11.3936 7.65711 11.5196 7.61319 11.6475 7.62012ZM7.50391 1.93066C5.80401 1.93066 4.50406 3.23082 4.50391 4.93066C4.50391 6.63066 5.80391 7.93066 7.50391 7.93066C9.20391 7.93066 10.5039 6.63066 10.5039 4.93066C10.5037 3.23082 9.2038 1.93066 7.50391 1.93066Z" fill="currentColor"/>
</svg>
