<svg width="12" height="12" viewBox="0 0 12 12" fill="none" xmlns="http://www.w3.org/2000/svg">
<path d="M2.5 8.28571V9.42857L1 10V8.85714L2.5 8.28571ZM9.5 8.28571L11 8.85714V10L9.5 9.42857V8.28571ZM3 2.57143C3.78643 2.57053 4.54172 2.92258 5.10327 3.5518C5.66483 4.18102 5.98774 5.03709 6.00249 5.9357C6.01723 6.83432 5.72264 7.70362 5.18213 8.35647C4.64161 9.00931 3.8984 9.39349 3.1125 9.42629L3 9.42857V2.57143ZM9 2.57143V9.42857L8.8875 9.42629C8.11133 9.39388 7.37641 9.01871 6.83733 8.3797C6.29825 7.74069 5.99703 6.88764 5.99703 6C5.99703 5.11236 6.29825 4.25931 6.83733 3.6203C7.37641 2.98129 8.11133 2.60612 8.8875 2.57371L9 2.57143ZM3.75 3.57543V8.424L3.792 8.408C4.20339 8.23087 4.56042 7.92 4.81906 7.51373C5.07769 7.10746 5.22663 6.62357 5.2475 6.12171L5.25 6C5.25003 5.47976 5.11204 4.97173 4.85424 4.54295C4.59644 4.11417 4.23095 3.7848 3.806 3.59829L3.75 3.57543ZM8.25 3.57543L8.194 3.59829C7.78655 3.77715 7.43337 4.0875 7.17744 4.49158C6.92152 4.89567 6.77388 5.37606 6.7525 5.87429L6.75 6L6.7525 6.12171C6.77254 6.60312 6.91046 7.06842 7.15055 7.46464C7.39063 7.86086 7.72324 8.17208 8.1105 8.36286L8.208 8.408L8.25 8.424V3.57543ZM11 5.42857V6.57143H9.5V5.42857H11ZM2.5 5.42857V6.57143H1V5.42857H2.5ZM1 2L2.5 2.57143V3.71429L1 3.14286V2ZM11 2V3.14286L9.5 3.71429V2.57143L11 2Z" fill="currentColor"/>
</svg>
