<svg width="12" height="12" viewBox="0 0 12 12" fill="none" xmlns="http://www.w3.org/2000/svg">
<g clip-path="url(#clip0_84578_5609)">
<path d="M7.40156 11.2383C6.69492 11.2383 5.9707 11.1645 5.55586 10.2762C5.22305 9.56484 5.08828 8.32617 5.08828 6C5.08828 3.67148 5.22422 2.43164 5.55586 1.72148C5.9707 0.835547 6.69609 0.761719 7.40156 0.761719C7.82344 0.761719 8.2875 0.914062 8.7457 1.20117C9.1793 1.47422 9.60117 1.86445 9.96445 2.33086C10.35 2.82539 10.6559 3.37969 10.875 3.97852C11.1164 4.63594 11.2383 5.3168 11.2383 6C11.2383 6.6832 11.1164 7.36406 10.8762 8.02148C10.657 8.62031 10.3512 9.17461 9.96563 9.66914C9.60234 10.1355 9.18047 10.5258 8.74688 10.7988C8.28867 11.0859 7.82344 11.2383 7.40156 11.2383ZM7.40156 1.51172C6.67148 1.51172 6.43125 1.6207 6.23555 2.04023C5.95664 2.63555 5.83828 3.81914 5.83828 6C5.83828 8.17969 5.95664 9.36328 6.23555 9.95859C6.43242 10.3793 6.67148 10.4883 7.40156 10.4883C7.99219 10.4883 8.7668 9.98555 9.37266 9.20859C10.0922 8.28633 10.4883 7.14727 10.4883 6C10.4883 4.85273 10.0922 3.71367 9.37383 2.79141C8.7668 2.01445 7.99336 1.51172 7.40156 1.51172ZM4.49766 2.44922H1.13672C0.929297 2.44922 0.761719 2.28164 0.761719 2.07422C0.761719 1.8668 0.929297 1.69922 1.13672 1.69922H4.49766C4.70508 1.69922 4.87266 1.8668 4.87266 2.07422C4.87266 2.28164 4.70508 2.44922 4.49766 2.44922ZM3.58594 5.06602H1.13672C0.929297 5.06602 0.761719 4.89844 0.761719 4.69102C0.761719 4.48359 0.929297 4.31602 1.13672 4.31602H3.58594C3.79336 4.31602 3.96094 4.48359 3.96094 4.69102C3.96094 4.89844 3.79336 5.06602 3.58594 5.06602ZM3.58594 7.68398H1.13672C0.929297 7.68398 0.761719 7.51641 0.761719 7.30898C0.761719 7.10156 0.929297 6.93398 1.13672 6.93398H3.58594C3.79336 6.93398 3.96094 7.10156 3.96094 7.30898C3.96094 7.51641 3.79336 7.68398 3.58594 7.68398ZM4.49766 10.3008H1.13672C0.929297 10.3008 0.761719 10.1332 0.761719 9.92578C0.761719 9.71836 0.929297 9.55078 1.13672 9.55078H4.49766C4.70508 9.55078 4.87266 9.71836 4.87266 9.92578C4.87266 10.1332 4.70508 10.3008 4.49766 10.3008Z" fill="currentColor"/>
</g>
<defs>
<clipPath id="clip0_84578_5609">
<rect width="12" height="12" fill="currentColor"/>
</clipPath>
</defs>
</svg>
