<svg width="12" height="12" viewBox="0 0 12 12" fill="none" xmlns="http://www.w3.org/2000/svg">
<g clip-path="url(#clip0_84578_5641)">
<path d="M1.88203 6C1.88203 5.77617 1.70039 5.59453 1.47656 5.59453H0.405469C0.181641 5.59453 0 5.77617 0 6C0 6.22383 0.181641 6.40547 0.405469 6.40547H1.47656C1.70039 6.40547 1.88203 6.22383 1.88203 6ZM2.24297 9.19922L1.47422 9.94687C1.31602 10.1039 1.31484 10.3605 1.47305 10.5187L1.47422 10.5199L1.48945 10.5258C1.64648 10.684 1.90312 10.6852 2.06133 10.527L2.0625 10.5258L2.81719 9.77109C2.97539 9.61289 2.97539 9.35625 2.81719 9.19805C2.65781 9.04102 2.40117 9.04102 2.24297 9.19922ZM9.75703 2.80078L10.5258 2.05312C10.684 1.89609 10.6852 1.63945 10.527 1.48125L10.5258 1.48008L10.5105 1.47422C10.3535 1.31602 10.0969 1.31484 9.93867 1.47305L9.9375 1.47422L9.18281 2.22891C9.02461 2.38711 9.02461 2.64375 9.18281 2.80195C9.34219 2.95898 9.59883 2.95898 9.75703 2.80078ZM5.99883 1.87734H6.00234C6.22617 1.87734 6.40664 1.69687 6.40664 1.47305V0.405469C6.40547 0.181641 6.22383 0 6 0C5.77617 0 5.59453 0.181641 5.59453 0.405469V1.47305C5.59453 1.69687 5.775 1.87734 5.99883 1.87734ZM2.2875 2.80312C2.44453 2.96133 2.70117 2.9625 2.85938 2.8043L2.86055 2.80312L2.86406 2.81484C3.02227 2.65781 3.02344 2.40117 2.86523 2.24297L2.86406 2.2418L2.1375 1.46953C1.98281 1.30781 1.72617 1.30195 1.56445 1.45781C1.40273 1.6125 1.39688 1.86914 1.55273 2.03086L2.2875 2.80312ZM9.7125 9.19687C9.55547 9.03867 9.29883 9.0375 9.14062 9.1957L9.13945 9.19687L9.13594 9.18516C8.97773 9.34219 8.97656 9.59883 9.13477 9.75703L9.13594 9.7582L9.8625 10.5305C10.0172 10.6922 10.2738 10.698 10.4355 10.5422C10.5973 10.3875 10.6031 10.1309 10.4473 9.96914L9.7125 9.19687ZM11.5945 5.59453H10.527C10.3031 5.59453 10.1215 5.77617 10.1215 6C10.1215 6.22383 10.3031 6.40547 10.527 6.40547H11.5945C11.8184 6.40547 12 6.22383 12 6C12 5.77617 11.8184 5.59453 11.5945 5.59453ZM5.98945 2.82539C4.23867 2.82539 2.81484 4.24922 2.81484 6C2.81484 7.75078 4.23867 9.17461 5.98945 9.17461C7.74023 9.17461 9.16289 7.75078 9.16289 6C9.16289 4.24922 7.73906 2.82539 5.98945 2.82539ZM5.98945 8.23359C4.75547 8.23359 3.75586 7.23281 3.75586 6C3.75586 4.76719 4.75664 3.76641 5.98945 3.76641C7.22227 3.76641 8.22305 4.76602 8.22305 6C8.22305 7.23398 7.22227 8.23359 5.98945 8.23359ZM6.00117 10.1227H5.99766C5.77383 10.1227 5.59336 10.3031 5.59336 10.527V11.5945C5.59336 11.8184 5.775 12 5.99883 12C6.22266 12 6.4043 11.8184 6.4043 11.5945V10.527C6.40547 10.3031 6.225 10.1227 6.00117 10.1227Z" fill="currentColor"/>
</g>
<defs>
<clipPath id="clip0_84578_5641">
<rect width="12" height="12" fill="currentColor"/>
</clipPath>
</defs>
</svg>
