<svg width="16" height="16" viewBox="0 0 16 16" fill="none" xmlns="http://www.w3.org/2000/svg">
<path d="M1.66602 1.66602C1.66602 1.11373 2.11373 0.666016 2.66602 0.666016H11.666C12.0342 0.666016 12.3327 0.964492 12.3327 1.33268V2.66602H13.666C14.0342 2.66602 14.3327 2.96449 14.3327 3.33268V14.666C14.3327 15.0342 14.0342 15.3327 13.666 15.3327H4.33268C3.96449 15.3327 3.66602 15.0342 3.66602 14.666V13.3327H2.33268C1.96449 13.3327 1.66602 13.0342 1.66602 12.666V1.66602ZM4.99935 13.9994H12.9993V3.99935H4.99935V13.9994ZM10.9993 2.66602V1.99935H2.99935V11.9994H3.66602V3.33268C3.66602 2.96449 3.96449 2.66602 4.33268 2.66602H10.9993ZM6.33268 7.33268C6.33268 6.96449 6.63116 6.66602 6.99935 6.66602H10.9993C11.3675 6.66602 11.666 6.96449 11.666 7.33268C11.666 7.70087 11.3675 7.99935 10.9993 7.99935H6.99935C6.63116 7.99935 6.33268 7.70087 6.33268 7.33268ZM6.33268 9.99935C6.33268 9.63116 6.63116 9.33268 6.99935 9.33268H10.9993C11.3675 9.33268 11.666 9.63116 11.666 9.99935C11.666 10.3675 11.3675 10.666 10.9993 10.666H6.99935C6.63116 10.666 6.33268 10.3675 6.33268 9.99935Z" fill="currentColor"/>
</svg>
