<svg width="28" height="28" viewBox="0 0 28 28" fill="none" xmlns="http://www.w3.org/2000/svg">
<path d="M3.23139 13.2683C3.22606 13.2719 3.01976 13.4105 2.71185 13.6833C2.37531 13.9953 1.9057 14.4117 1.49115 15.071C1.26683 15.4035 1.1061 15.7937 1.02143 16.2126C0.920147 16.6325 0.967176 17.0856 1.15131 17.4607C1.51534 18.221 2.32217 18.8468 3.17865 19.2615C4.92053 20.128 6.99911 20.4396 8.79291 20.5779C9.31283 20.6133 9.80545 20.6492 10.2734 20.6492V18.7419L13.6513 22.6218L10.2744 26.5037V24.2839C9.66362 24.1741 9.05709 24.0364 8.45502 23.8699C6.53258 23.3169 4.37432 22.4836 2.50385 20.9949C2.03937 20.6318 1.61221 20.2008 1.23139 19.7126C0.840046 19.1917 0.476865 18.6037 0.294863 17.9109C0.122163 17.2398 0.150968 16.5148 0.374941 15.8669C0.581464 15.3123 0.892701 14.9308 1.17865 14.6189C1.7752 14.0304 2.29708 13.7521 2.66107 13.5447C2.8451 13.4347 3.0358 13.3423 3.23139 13.2683ZM23.0849 13.2332C23.0849 13.2332 23.2932 13.3023 23.6572 13.5115C24.0212 13.7189 24.5671 13.9955 25.1376 14.5857C25.4236 14.8604 25.7357 15.2429 25.9697 15.9001C26.2036 16.4549 26.2561 17.2529 26.0742 17.9441C25.8922 18.6725 25.554 19.2612 25.164 19.7468C24.774 20.2307 24.3332 20.6452 23.8652 21.0281C21.9946 22.5187 19.8365 23.3483 17.914 23.9031C17.1486 24.1016 16.3771 24.2634 15.6015 24.3884V20.6804C16.1994 20.6804 16.8742 20.6812 17.5761 20.6121C19.3685 20.4738 21.4485 20.1263 23.1904 19.2615C24.0469 18.8113 24.8534 18.2204 25.1913 17.4246C25.362 17.0441 25.4084 16.5984 25.3212 16.1775C25.2153 15.7616 25.0466 15.3735 24.8242 15.0339C24.468 14.5098 24.0584 14.0441 23.6054 13.6482C23.2674 13.3735 23.0849 13.2332 23.0849 13.2332ZM7.7392 1.50366C8.49056 1.5037 9.13225 1.63535 9.664 1.89819C10.1957 2.15519 10.6004 2.53169 10.8779 3.02808C11.1554 3.52463 11.2939 4.12393 11.2939 4.82495V4.83374C11.2939 5.28338 11.2014 5.75339 11.0165 6.2439C10.8316 6.73457 10.5745 7.20819 10.2451 7.66382L6.59467 12.6765H11.3632V14.3757H4.25287V12.825L8.64935 6.90112C8.90356 6.56245 9.1005 6.21236 9.2392 5.85034C9.38369 5.4824 9.45596 5.14035 9.456 4.82495V4.80737C9.456 4.29914 9.30844 3.90419 9.01361 3.62378C8.7188 3.34349 8.29908 3.20386 7.7558 3.20386C7.24164 3.20394 6.82558 3.35836 6.50775 3.66772C6.18987 3.97144 5.99611 4.40395 5.9267 4.9646V4.97339H4.09662V4.9646C4.20069 4.23449 4.4125 3.6124 4.73041 3.09839C5.05406 2.57868 5.46993 2.18445 5.97846 1.91577C6.48717 1.64121 7.0744 1.50366 7.7392 1.50366ZM17.8749 1.6355C18.8865 1.6355 19.7509 1.81342 20.4677 2.16968C21.1845 2.52603 21.7316 3.04576 22.1074 3.72925C22.4831 4.41273 22.6708 5.23706 22.6708 6.20093V9.8103C22.6708 10.7742 22.4831 11.5985 22.1074 12.282C21.7317 12.9654 21.1823 13.4852 20.4599 13.8416C19.7432 14.1979 18.8786 14.3757 17.8671 14.3757H13.8779V1.6355H17.8749ZM15.6464 12.6765H17.9277C18.8583 12.6765 19.5782 12.4338 20.0869 11.949C20.6013 11.4583 20.8583 10.7685 20.8583 9.88062V6.13062C20.8583 5.24273 20.6013 4.55591 20.0869 4.07104C19.5782 3.58038 18.8583 3.33476 17.9277 3.33472H15.6464V12.6765Z" fill="currentColor"/>
</svg>
