<svg width="28" height="28" viewBox="0 0 28 28" fill="none" xmlns="http://www.w3.org/2000/svg">
<path d="M26.1436 15.8091C26.3808 16.3655 26.4335 17.1655 26.2491 17.8588C26.0646 18.5895 25.722 19.1797 25.3267 19.6668C24.9314 20.1522 24.4849 20.5682 24.0105 20.9522C22.1146 22.4473 19.9273 23.2793 17.9786 23.8357C17.2028 24.0349 16.4209 24.1974 15.6347 24.3228V20.6037C16.2408 20.6037 16.9245 20.6037 17.636 20.5344C19.4529 20.3957 21.5612 20.0473 23.3268 19.1797C24.195 18.7282 25.0119 18.1362 25.3545 17.3379C25.5276 16.9562 25.5747 16.5088 25.4863 16.0864C25.3789 15.6693 25.2081 15.2803 24.9827 14.9397C24.6216 14.4139 24.2063 13.9466 23.747 13.5495C23.4044 13.2739 23.2199 13.1335 23.2199 13.1335C23.2199 13.1335 23.4308 13.2028 23.7997 13.4126C24.1686 13.6206 24.7221 13.8979 25.3004 14.4899C25.5902 14.7655 25.9065 15.1495 26.1436 15.8091ZM21.9682 8.17528C21.9682 12.4971 19.9566 14.6499 16.825 14.6499H14.0003V1.80728H16.7108C19.9566 1.80728 21.9682 3.8375 21.9682 8.17528ZM19.7984 8.17528C19.7984 5.03572 18.5643 3.85528 16.5805 3.85528H15.9202V12.5842H16.5805C18.5643 12.5842 19.7984 11.3006 19.7984 8.17528ZM10.2353 26.4437V24.2179C9.61596 24.1077 9.00106 23.9691 8.39055 23.8019C6.4419 23.2473 4.2546 22.4117 2.35866 20.9184C1.88787 20.5542 1.45483 20.1227 1.06883 19.6331C0.672068 19.1104 0.304591 18.5202 0.120121 17.8251C-0.0549263 17.152 -0.0263723 16.4251 0.200644 15.7753C0.410003 15.2188 0.726238 14.8366 1.01612 14.5237C1.62077 13.9335 2.1493 13.6544 2.51824 13.4464C2.70485 13.336 2.89819 13.2433 3.09654 13.1691C3.09654 13.1691 2.88572 13.3077 2.56948 13.5851C2.22836 13.8979 1.75254 14.3157 1.33236 14.9771C1.10499 15.3105 0.942362 15.7018 0.856539 16.1219C0.753826 16.5431 0.801643 16.9973 0.988304 17.3735C1.35724 18.1362 2.17419 18.7637 3.04237 19.1797C4.80802 20.0491 6.91479 20.3619 8.73314 20.5006C9.2602 20.5362 9.75944 20.5717 10.2338 20.5717V18.6588L13.6582 22.5504L10.2353 26.4437ZM9.56911 8.00283C10.7755 8.40105 11.6949 9.47839 11.6949 11.1619C11.6949 13.5211 9.98637 14.8917 7.96012 14.8917C6.27939 14.8917 5.14475 14.1291 4.39808 13.1051L5.38924 11.4908C6.02172 12.2375 6.7962 12.8099 7.75955 12.8099C8.83709 12.8099 9.56911 12.1682 9.56911 11.0215C9.56911 9.75572 8.95128 8.97528 6.63808 8.97528V7.13528C8.59259 7.13528 9.2236 6.31928 9.2236 5.17439C9.2236 4.16639 8.70679 3.57616 7.802 3.56016C7.0407 3.57616 6.42287 4.00994 5.79039 4.70505L4.71432 3.14239C5.63228 2.17172 6.65272 1.56372 7.90302 1.56372C9.95709 1.56372 11.3509 2.77794 11.3509 4.98239C11.3509 6.37083 10.7052 7.37705 9.56911 7.91572V8.00283Z" fill="currentColor"/>
</svg>
