<svg width="28" height="28" viewBox="0 0 28 28" fill="none" xmlns="http://www.w3.org/2000/svg">
<path d="M25 13.2736H22.6807C22.3356 9.04222 18.9578 5.66439 14.7264 5.31934V3H13.2736V5.31934C9.04222 5.66439 5.66439 9.04222 5.31934 13.2736H3V14.7264H5.31934C5.66439 18.9578 9.04222 22.3356 13.2736 22.6807V25H14.7264V22.6807C18.9578 22.3356 22.3356 18.9578 22.6807 14.7264H25V13.2736ZM14 21.2642C9.98656 21.2642 6.73585 18.0134 6.73585 14C6.73585 9.98656 9.98656 6.73585 14 6.73585C18.0134 6.73585 21.2642 9.98656 21.2642 14C21.2642 18.0134 18.0134 21.2642 14 21.2642ZM16.9057 14C16.9057 15.5981 15.5981 16.9057 14 16.9057C12.4019 16.9057 11.0943 15.5981 11.0943 14C11.0943 12.4019 12.4019 11.0943 14 11.0943C15.5981 11.0943 16.9057 12.4019 16.9057 14Z" fill="currentColor"/>
</svg>
