<svg width="28" height="28" viewBox="0 0 28 28" fill="none" xmlns="http://www.w3.org/2000/svg">
<path d="M24.2667 19.25C22.6333 19.25 21.1167 20.3 20.65 21.8167H8.28333C6.41667 21.8167 4.9 20.3 4.9 18.4333C4.9 16.5667 6.41667 15.1667 8.28333 15.1667H19.7167C22.8667 15.1667 25.4333 12.6 25.4333 9.45001C25.4333 6.30001 22.8667 3.73334 19.7167 3.73334H7.35C6.88333 2.21667 5.48333 1.16667 3.73333 1.16667C1.75 1.16667 0 2.91667 0 4.9C0 6.88334 1.75 8.63334 3.73333 8.63334C5.36667 8.63334 6.88333 7.58334 7.35 6.06667H19.6C21.4667 6.06667 22.9833 7.58334 22.9833 9.45001C22.9833 11.3167 21.5833 12.8333 19.7167 12.8333H8.28333C5.13333 12.8333 2.56667 15.4 2.56667 18.55C2.56667 21.7 5.13333 24.2667 8.28333 24.2667H20.5333C21 25.7833 22.4 26.8333 24.15 26.8333C26.25 26.8333 27.8833 25.0833 27.8833 23.1C27.8833 21.1167 26.25 19.25 24.2667 19.25ZM3.73333 6.41667C3.03333 6.41667 2.33333 5.71667 2.33333 4.9C2.33333 4.08334 3.03333 3.50001 3.73333 3.50001C4.43333 3.50001 5.13333 4.2 5.13333 4.9C5.13333 5.6 4.55 6.41667 3.73333 6.41667ZM24.2667 24.5C23.45 24.5 22.8667 23.8 22.8667 23.1C22.8667 22.4 23.5667 21.7 24.2667 21.7C24.9667 21.7 25.6667 22.4 25.6667 23.1C25.6667 23.8 24.9667 24.5 24.2667 24.5Z" fill="currentColor"/>
</svg>
