<svg width="19" height="13" viewBox="0 0 19 13" fill="none" xmlns="http://www.w3.org/2000/svg">
<path d="M0.158203 11.3555L4.61426 5.41406C4.87207 5.07422 5.07129 4.72266 5.21191 4.35938C5.3584 3.99023 5.43164 3.64746 5.43164 3.33105V3.31348C5.43164 2.80371 5.28223 2.4082 4.9834 2.12695C4.68457 1.8457 4.25977 1.70508 3.70898 1.70508C3.1875 1.70508 2.76562 1.86035 2.44336 2.1709C2.12109 2.47559 1.9248 2.90918 1.85449 3.47168V3.48047H0V3.47168C0.105469 2.73926 0.319336 2.11523 0.641602 1.59961C0.969727 1.07813 1.3916 0.682617 1.90723 0.413086C2.42285 0.137695 3.01758 0 3.69141 0C4.45312 0 5.10352 0.131836 5.64258 0.395508C6.18164 0.65332 6.5918 1.03125 6.87305 1.5293C7.1543 2.02734 7.29492 2.62793 7.29492 3.33105V3.33984C7.29492 3.79102 7.20117 4.2627 7.01367 4.75488C6.82617 5.24707 6.56543 5.72168 6.23145 6.17871L2.53125 11.2061H7.36523V12.9111H0.158203V11.3555ZM11.127 11.2061H14.0186C14.9619 11.2061 15.6914 10.9629 16.207 10.4766C16.7285 9.98438 16.9893 9.29297 16.9893 8.40234V4.64062C16.9893 3.75 16.7285 3.06152 16.207 2.5752C15.6914 2.08301 14.9619 1.83691 14.0186 1.83691H11.127V0.131836H13.9658C14.9912 0.131836 15.8672 0.310547 16.5938 0.667969C17.3203 1.02539 17.874 1.54688 18.2549 2.23242C18.6357 2.91797 18.8262 3.74414 18.8262 4.71094V8.33203C18.8262 9.29883 18.6357 10.125 18.2549 10.8105C17.874 11.4961 17.3174 12.0176 16.585 12.375C15.8584 12.7324 14.9824 12.9111 13.957 12.9111H11.127V11.2061ZM9.91406 0.131836H11.707V12.9111H9.91406V0.131836Z" fill="currentColor"/>
</svg>
