<svg width="28" height="28" viewBox="0 0 28 28" fill="none" xmlns="http://www.w3.org/2000/svg">
<path d="M13.9999 25.6666C20.4432 25.6666 25.6666 20.4433 25.6666 14C25.6666 7.55665 20.4432 2.33331 13.9999 2.33331C7.55659 2.33331 2.33325 7.55665 2.33325 14C2.33325 20.4433 7.55659 25.6666 13.9999 25.6666Z" stroke="currentColor" stroke-width="2.33333"/>
<path d="M2.33325 12.1569C4.09191 11.3265 5.39264 11.2108 6.2354 11.8098C7.4996 12.7084 7.65809 16.3707 10.5335 14.6204C13.4088 12.8701 9.30216 12.1569 10.1937 9.62144C11.0852 7.08599 14.0048 9.05549 14.295 6.27824C14.4885 4.4267 12.2737 3.71824 7.65068 4.15287" stroke="currentColor" stroke-width="2.33333"/>
<path d="M21.0001 4.66669C17.6667 7.5767 16.5025 9.334 17.5075 9.93845C19.0149 10.8452 19.6545 9.56861 21.494 9.93845C23.3334 10.3083 22.9351 12.8017 21.9676 12.8017C21.0001 12.8017 15.9892 12.1636 16.2416 15.0879C16.494 18.0122 19.508 18.4452 19.508 20.079C19.508 21.1682 18.8411 22.8352 17.5075 25.08" stroke="currentColor" stroke-width="2.33333" stroke-linecap="round"/>
<path d="M3.56104 19.2071C4.09274 18.9751 4.49242 18.8051 4.76008 18.697C7.00422 17.7904 8.66941 17.5766 9.75552 18.0559C11.6761 18.9034 10.9378 20.615 11.5393 21.2456C12.1409 21.8762 13.6431 21.6928 13.6431 22.8923C13.6431 23.6921 13.3745 24.5955 12.8372 25.6025" stroke="currentColor" stroke-width="2.33333" stroke-linecap="round"/>
</svg>
