<svg width="36" height="36" viewBox="0 0 36 36" fill="none" xmlns="http://www.w3.org/2000/svg">
<rect width="35.8784" height="35.8784" fill="transparent"/>
<path d="M29.1555 15.696C29.981 15.6962 30.6506 16.3656 30.6506 17.1912C30.6506 23.7027 25.7523 29.0687 19.4397 29.8093V32.8855C19.4397 33.7111 18.7702 34.3806 17.9446 34.3806C17.1191 34.3805 16.4495 33.711 16.4495 32.8855V29.8093C10.1357 29.0698 5.23661 23.7035 5.23657 17.1912C5.23657 16.3655 5.90607 15.696 6.73169 15.696C7.55717 15.6962 8.22681 16.3656 8.22681 17.1912C8.22684 22.5494 12.5632 26.8934 17.9182 26.907C17.927 26.9068 17.9358 26.906 17.9446 26.906C17.9527 26.906 17.9609 26.9069 17.969 26.907C23.3238 26.8931 27.6604 22.5492 27.6604 17.1912C27.6604 16.3656 28.33 15.6961 29.1555 15.696ZM17.9514 1.49292C21.6667 1.49301 24.678 4.5052 24.678 8.22046V17.9373C24.6778 21.6523 21.6665 24.6647 17.9514 24.6648C14.2363 24.6648 11.2241 21.6524 11.2239 17.9373V8.22046C11.2239 4.50516 14.2361 1.49296 17.9514 1.49292Z" fill="currentColor"/>
<rect x="3.44653" y="10.5312" width="4.86486" height="35.2703" transform="rotate(-45 3.44653 10.5312)" fill="#021328"/>
<rect x="5.59619" y="10.103" width="1.21622" height="33.4459" transform="rotate(-45 5.59619 10.103)" fill="currentColor"/>
</svg>
