<svg width="59" height="59" viewBox="0 0 59 59" fill="none" xmlns="http://www.w3.org/2000/svg">
<path fill-rule="evenodd" clip-rule="evenodd" d="M47.9395 25.8125C49.2968 25.8128 50.3973 26.9131 50.3975 28.2705C50.3975 38.9795 42.3412 47.8051 31.959 49.0215V54.082C31.959 55.4397 30.8586 56.54 29.501 56.54C28.1433 56.54 27.043 55.4397 27.043 54.082V49.0205C16.6613 47.8036 8.60547 38.9791 8.60547 28.2705C8.60564 26.913 9.70688 25.8125 11.0645 25.8125C12.4218 25.8128 13.5223 26.9131 13.5225 28.2705C13.5225 37.0902 20.6677 44.2403 29.4854 44.249H29.5166C38.3347 44.2408 45.4814 37.0906 45.4814 28.2705C45.4816 26.913 46.5819 25.8125 47.9395 25.8125ZM29.502 2.45898C35.6114 2.45916 40.5645 7.41196 40.5645 13.5215V29.5C40.5643 35.6094 35.6113 40.5623 29.502 40.5625C23.3926 40.5622 18.4396 35.6093 18.4395 29.5V13.5215C18.4395 7.41201 23.3925 2.45924 29.502 2.45898Z" fill="currentColor"/>
</svg>
