<svg width="51" height="51" viewBox="0 0 51 51" fill="none" xmlns="http://www.w3.org/2000/svg">
<rect width="50.2297" height="50.2297" fill="none"/>
<path fill-rule="evenodd" clip-rule="evenodd" d="M40.8184 21.9746C41.9742 21.9746 42.9111 22.9116 42.9111 24.0674C42.9111 33.1834 36.0543 40.6964 27.2168 41.7334V46.0391C27.2168 47.1948 26.2797 48.1325 25.124 48.1328C23.9682 48.1328 23.0312 47.1949 23.0312 46.0391V41.7344C14.1916 40.6994 7.33203 33.185 7.33203 24.0674C7.3321 22.9116 8.26898 21.9746 9.4248 21.9746C10.5806 21.9746 11.5175 22.9116 11.5176 24.0674C11.5176 31.565 17.5835 37.6447 25.0752 37.6699C25.0913 37.6696 25.1079 37.668 25.124 37.668C25.1397 37.668 25.1553 37.6696 25.1709 37.6699C32.6615 37.6433 38.7256 31.5642 38.7256 24.0674C38.7257 22.9116 39.6625 21.9746 40.8184 21.9746ZM25.1328 2.08984C30.3341 2.08999 34.5508 6.30646 34.5508 11.5078V25.1113C34.5508 30.3127 30.3341 34.5292 25.1328 34.5293C19.9314 34.5293 15.7148 30.3128 15.7148 25.1113V11.5078C15.7148 6.30637 19.9314 2.08984 25.1328 2.08984Z" fill="currentColor"/>
<rect x="4.82422" y="14.7441" width="6.81081" height="49.3784" transform="rotate(-45 4.82422 14.7441)" fill="none"/>
<rect x="7.83594" y="14.1445" width="1.7027" height="46.8243" transform="rotate(-45 7.83594 14.1445)" fill="currentColor"/>
</svg>
