<svg width="14" height="14" viewBox="0 0 14 14" fill="none" xmlns="http://www.w3.org/2000/svg">
<path d="M4.5498 0C4.9364 -1.68988e-08 5.25 0.313595 5.25 0.700195V3.84961C5.25 4.23621 4.9364 4.5498 4.5498 4.5498C4.16329 4.5497 3.84961 4.23614 3.84961 3.84961V2.27539C3.53741 2.56212 3.23549 2.84459 3.04004 3.04004C2.02587 4.05418 1.40039 5.45339 1.40039 7C1.40039 10.0928 3.90721 12.5996 7 12.5996C7.09662 12.5996 7.19267 12.5976 7.28809 12.5928C10.247 12.4428 12.5996 9.99617 12.5996 7C12.5996 5.54998 12.05 4.22939 11.1455 3.23438L10.96 3.04004C10.7645 2.84459 10.4626 2.56212 10.1504 2.27539V3.84961C10.1504 4.23614 9.83671 4.5497 9.4502 4.5498C9.0636 4.5498 8.75 4.23621 8.75 3.84961V0.700195C8.75 0.313595 9.0636 -1.68988e-08 9.4502 0H12.5996C12.9862 1.68988e-08 13.2998 0.313595 13.2998 0.700195C13.2997 1.0867 12.9861 1.40039 12.5996 1.40039H11.2666C11.5263 1.64069 11.7738 1.87337 11.9502 2.0498C13.137 3.23662 13.9004 4.85012 13.9912 6.63965C13.9973 6.759 14 6.87915 14 7C14 7.12085 13.9973 7.241 13.9912 7.36035C13.8097 10.9395 10.9395 13.8097 7.36035 13.9912C7.241 13.9973 7.12085 14 7 14C6.87915 14 6.759 13.9973 6.63965 13.9912C3.06047 13.8097 0.190278 10.9395 0.00878906 7.36035C0.00273732 7.241 5.05643e-09 7.12085 0 7C5.28239e-09 6.87915 0.0027313 6.759 0.00878906 6.63965C0.0996193 4.85011 0.862965 3.23662 2.0498 2.0498C2.22624 1.87337 2.47368 1.64069 2.7334 1.40039H1.40039C1.01386 1.40039 0.700301 1.0867 0.700195 0.700195C0.700195 0.313595 1.01379 1.68988e-08 1.40039 0H4.5498Z" fill="currentColor"/>
</svg>
