<svg width="12" height="12" viewBox="0 0 12 12" fill="none" xmlns="http://www.w3.org/2000/svg">
<path fill-rule="evenodd" clip-rule="evenodd" d="M5.99986 3.75C7.61824 3.75 8.99982 4.97009 8.99986 6.55762V9.75H10.7499C11.026 9.75 11.2499 9.97386 11.2499 10.25C11.2499 10.5261 11.026 10.75 10.7499 10.75H1.49986C1.22384 10.7499 0.99986 10.5261 0.99986 10.25C0.99986 9.97394 1.22384 9.75014 1.49986 9.75H2.99986V6.55762C2.9999 4.97017 4.38159 3.75013 5.99986 3.75ZM5.99986 4.75C4.85703 4.75013 3.9999 5.5963 3.99986 6.55762V9.75H7.99986V6.55762C7.99982 5.59623 7.14282 4.75 5.99986 4.75Z" fill="currentColor"/>
<path d="M0.952985 4.98486C1.00101 4.7131 1.26029 4.5318 1.53209 4.57959L2.27037 4.70947C2.54232 4.75742 2.72408 5.01711 2.67613 5.28906C2.62809 5.56088 2.36889 5.74225 2.09703 5.69434L1.35826 5.56445C1.08648 5.51637 0.905079 5.2567 0.952985 4.98486Z" fill="currentColor"/>
<path d="M10.4676 4.57959C10.7395 4.53165 10.9987 4.71303 11.0467 4.98486C11.0947 5.2568 10.9134 5.51648 10.6415 5.56445L9.90269 5.69434C9.6309 5.74211 9.3716 5.56083 9.32359 5.28906C9.27569 5.01727 9.45717 4.75762 9.72886 4.70947L10.4676 4.57959Z" fill="currentColor"/>
<path d="M8.5897 2.01074C8.76717 1.79925 9.08276 1.77185 9.29429 1.94922C9.50569 2.12672 9.53323 2.44183 9.35582 2.65332L8.87388 3.22803C8.69636 3.43946 8.38079 3.46702 8.16929 3.28955C7.95802 3.11208 7.93054 2.79692 8.10777 2.58545L8.5897 2.01074Z" fill="currentColor"/>
<path d="M2.70543 1.94922C2.91692 1.77175 3.2325 1.79931 3.41002 2.01074L3.89195 2.58496C4.06945 2.7965 4.04196 3.11205 3.83043 3.28955C3.61894 3.46684 3.3038 3.43936 3.12632 3.22803L2.6439 2.65332C2.46671 2.44191 2.49431 2.12672 2.70543 1.94922Z" fill="currentColor"/>
<path d="M5.99986 0.75C6.276 0.75 6.49986 0.973858 6.49986 1.25V2C6.49986 2.27614 6.276 2.5 5.99986 2.5C5.72384 2.49986 5.49986 2.27606 5.49986 2V1.25C5.49986 0.973944 5.72384 0.75014 5.99986 0.75Z" fill="currentColor"/>
</svg>
