<svg width="18" height="18" viewBox="0 0 18 18" fill="none" xmlns="http://www.w3.org/2000/svg">
<g clip-path="url(#clip0_2791_16914)">
<path d="M7.38372 2.41199C7.45208 1.56669 8.15514 0.900391 9.00468 0.900391C9.85421 0.900391 10.5573 1.56669 10.6256 2.41199C12.9594 3.11807 14.6683 5.3258 14.6683 7.94127C14.6683 10.7457 15.2639 11.9987 15.7033 12.5457C15.9279 12.8142 16.1232 12.9335 16.2502 12.9833C16.3087 13.0131 16.3576 13.023 16.3771 13.023C16.7872 13.0529 17.1095 13.4109 17.0997 13.8286C17.0997 14.2661 16.7482 14.6142 16.3185 14.6142H12.1196C11.7681 16.0462 10.4987 17.1004 8.99491 17.1004C7.49113 17.1004 6.21195 16.0462 5.87018 14.6142H1.66156C1.66156 14.6142 1.66156 14.6142 1.68109 13.8186L1.66156 14.6142C1.23191 14.6142 0.899902 14.2462 0.899902 13.8186C0.899902 13.391 1.25143 13.0429 1.67132 13.033C1.67132 13.033 1.72014 13.033 1.77873 13.0032C1.87638 12.9634 2.06191 12.8739 2.25721 12.6551C2.66733 12.2076 3.24345 11.1137 3.33133 8.5479C3.33133 7.07608 3.6731 5.96227 4.16134 5.08713C4.64958 4.22194 5.255 3.65509 5.71394 3.24735C5.73347 3.22746 5.753 3.20757 5.7823 3.19763C6.27054 2.84956 6.8076 2.591 7.38372 2.41199ZM14.1312 13.033C13.5355 12.0286 13.1059 10.4374 13.1059 7.94127C13.1059 5.63409 11.2701 3.76448 9.00468 3.76448C8.14538 3.76448 7.35443 4.03299 6.70019 4.4805C6.29007 4.83851 5.86041 5.26614 5.51865 5.88271C5.16712 6.49929 4.8937 7.34459 4.8937 8.55785C4.8937 8.55785 4.8937 8.57774 4.8937 8.58768C4.82535 10.7159 4.43476 12.1081 3.91722 13.033H14.1312ZM9.00468 15.5192C9.63939 15.5192 10.1862 15.1612 10.4694 14.6241H7.53996C7.82314 15.1612 8.36997 15.5192 9.00468 15.5192Z" fill="currentcolor"/>
</g>
<defs>
<clipPath id="clip0_2791_16914">
<rect width="18" height="18" fill="white"/>
</clipPath>
</defs>
</svg>
