<svg width="14" height="14" viewBox="0 0 14 14" fill="none" xmlns="http://www.w3.org/2000/svg">
<path d="M9.22584 1.05451C9.16717 0.993792 9.09689 0.945504 9.01917 0.912524C8.94145 0.879545 8.85789 0.862549 8.77346 0.862549C8.68903 0.862549 8.60547 0.879545 8.52775 0.912524C8.45003 0.945504 8.37974 0.993792 8.32108 1.05451C8.21142 1.17116 8.15037 1.32524 8.15037 1.48535C8.15037 1.64545 8.21142 1.79953 8.32108 1.91618C9.65285 3.25056 10.4008 5.05879 10.4008 6.94404C10.4008 8.82929 9.65285 10.6375 8.32108 11.9719C8.20006 12.0931 8.13208 12.2573 8.13208 12.4286C8.13208 12.5998 8.20006 12.7641 8.32108 12.8853C8.44225 13.0063 8.60651 13.0743 8.77777 13.0743C8.94902 13.0743 9.11328 13.0063 9.23445 12.8853C10.7935 11.3107 11.6673 9.18395 11.6657 6.96812C11.6641 4.75229 10.7872 2.62683 9.22584 1.05451Z" fill="currentColor"/>
<path d="M6.391 3.32069C6.27252 3.21472 6.11913 3.15613 5.96016 3.15613C5.8012 3.15613 5.64781 3.21472 5.52933 3.32069C5.42155 3.43829 5.36176 3.59201 5.36176 3.75153C5.36176 3.91105 5.42155 4.06477 5.52933 4.18237C6.2923 4.94932 6.7206 5.98714 6.7206 7.06897C6.7206 8.15079 6.2923 9.18862 5.52933 9.95557C5.42335 10.0741 5.36476 10.2274 5.36476 10.3864C5.36476 10.5454 5.42335 10.6988 5.52933 10.8172C5.64692 10.925 5.80065 10.9848 5.96016 10.9848C6.11968 10.9848 6.27341 10.925 6.391 10.8172C7.36488 9.81253 7.90947 8.46822 7.90947 7.06897C7.90947 5.66972 7.36488 4.32541 6.391 3.32069ZM2.59964 6.259C2.4996 6.35831 2.4202 6.47644 2.36601 6.60658C2.31183 6.73672 2.28394 6.8763 2.28394 7.01727C2.28394 7.15824 2.31183 7.29781 2.36601 7.42795C2.4202 7.55809 2.4996 7.67623 2.59964 7.77554C2.7499 7.92712 2.9418 8.03064 3.15099 8.07297C3.36018 8.11529 3.57723 8.09452 3.77459 8.01327C3.97196 7.93203 4.14073 7.79398 4.2595 7.61665C4.37827 7.43932 4.44168 7.2307 4.44168 7.01727C4.44168 6.80384 4.37827 6.59522 4.2595 6.41789C4.14073 6.24056 3.97196 6.10251 3.77459 6.02127C3.57723 5.94002 3.36018 5.91924 3.15099 5.96157C2.9418 6.0039 2.7499 6.10742 2.59964 6.259Z" fill="currentColor"/>
</svg>
