<svg width="26" height="26" viewBox="0 0 26 26" fill="none" xmlns="http://www.w3.org/2000/svg">
<g clip-path="url(#clip0_85789_9631)">
<path d="M25.2417 2.38327L18.7417 0.108269C18.4167 -6.47455e-05 18.0917 -6.47455e-05 17.7667 0.216602C17.55 0.433269 17.3333 0.758269 17.3333 1.08327V10.8333C17.3333 11.4833 17.7667 11.9166 18.4167 11.9166C19.0667 11.9166 19.5 11.4833 19.5 10.8333V8.12494L25.4583 4.33327C25.8917 4.1166 26 3.68327 26 3.24994C26 2.8166 25.675 2.4916 25.2417 2.38327ZM19.5 5.52494V2.59994L22.425 3.68327L19.5 5.52494ZM10.075 23.5083C9.75 23.3999 9.425 23.2916 9.1 23.0749C8.66667 22.8583 8.23333 23.0749 8.01667 23.5083C7.8 23.9416 8.01667 24.3749 8.45 24.5916C8.775 24.6999 9.1 24.9166 9.53333 25.0249H9.85833C10.1833 25.0249 10.5083 24.8083 10.6167 24.4833C10.725 24.1583 10.5083 23.6166 10.075 23.5083ZM6.825 8.3416C6.93333 8.44993 7.04167 8.44993 7.25833 8.44993C7.58333 8.44993 7.8 8.3416 8.01667 8.0166C8.125 7.79994 8.23333 7.58327 8.45 7.3666C8.775 7.0416 8.775 6.49994 8.45 6.17493C8.125 5.84994 7.58333 5.84994 7.25833 6.17493C7.04167 6.49994 6.71667 6.82494 6.5 7.14994C6.28333 7.58327 6.39167 8.12494 6.825 8.3416ZM7.69167 10.6166C7.58333 10.1833 7.15 9.85827 6.71667 9.9666C6.28333 10.0749 5.95833 10.5083 6.06667 10.9416C6.175 11.3749 6.28333 11.8083 6.39167 12.1333C6.5 12.4583 6.825 12.6749 7.15 12.6749C7.25833 12.6749 7.36667 12.6749 7.475 12.5666C7.90833 12.3499 8.125 11.9166 7.90833 11.4833C7.8 11.2666 7.69167 10.9416 7.69167 10.6166ZM10.5083 14.0833C10.1833 13.9749 9.96667 13.7583 9.64167 13.6499C9.31667 13.4333 8.775 13.5416 8.55833 13.8666C8.34167 14.1916 8.45 14.7333 8.775 14.9499C9.1 15.1666 9.425 15.3833 9.85833 15.5999C9.96667 15.7083 10.075 15.7083 10.1833 15.7083C10.5083 15.7083 10.725 15.4916 10.9417 15.2749C11.05 14.7333 10.8333 14.2999 10.5083 14.0833ZM16.1417 6.49994C15.925 6.28327 15.6 6.0666 15.3833 5.84994C15.0583 5.63327 14.5167 5.63327 14.3 6.0666C14.0833 6.3916 14.0833 6.93327 14.5167 7.14994C14.7333 7.25827 14.95 7.47494 15.1667 7.6916C15.275 7.79993 15.4917 7.90827 15.7083 7.90827C15.925 7.90827 16.1417 7.79994 16.3583 7.58327C16.4667 7.3666 16.4667 6.82493 16.1417 6.49994ZM17.55 21.5583C17.1167 21.4499 16.6833 21.6666 16.4667 22.0999L16.3583 22.3166L16.0333 22.9666C15.8167 23.2916 15.925 23.8333 16.25 24.0499C16.3583 24.1583 16.575 24.1583 16.6833 24.1583C16.9 24.1583 17.225 24.0499 17.3333 23.8333C17.55 23.5083 17.6583 23.1833 17.7667 22.8583L17.875 22.6416C18.2 22.0999 17.9833 21.6666 17.55 21.5583ZM12.675 5.52494C12.675 5.0916 12.35 4.65827 11.9167 4.65827H10.725C10.2917 4.65827 9.96667 5.0916 9.96667 5.52494C9.96667 5.95827 10.4 6.28327 10.725 6.28327H11.8083C12.2417 6.28327 12.675 5.95827 12.675 5.52494ZM17.4417 17.6583C17.1167 17.3333 16.6833 17.3333 16.25 17.5499C15.925 17.8749 15.8167 18.3083 16.1417 18.7416C16.3583 18.9583 16.4667 19.2833 16.575 19.4999C16.6833 19.8249 17.0083 20.0416 17.3333 20.0416C17.4417 20.0416 17.55 20.0416 17.6583 19.9333C18.0917 19.7166 18.3083 19.2833 18.0917 18.8499C17.875 18.4166 17.6583 18.0916 17.4417 17.6583ZM14.5167 15.5999C14.1917 15.3833 13.7583 15.2749 13.4333 15.1666C13 15.0583 12.5667 15.2749 12.35 15.5999C12.2417 16.0333 12.4583 16.4666 12.7833 16.6833C13.1083 16.7916 13.4333 16.8999 13.7583 17.1166C13.8667 17.1166 13.975 17.2249 14.0833 17.2249C14.4083 17.2249 14.7333 17.0083 14.8417 16.7916C15.1667 16.2499 14.95 15.7083 14.5167 15.5999ZM13.975 24.0499H13C12.5667 24.0499 12.2417 24.3749 12.2417 24.8083C12.2417 25.2416 12.5667 25.6749 13 25.6749H13.325C13.65 25.6749 13.975 25.6749 14.3 25.5666C14.7333 25.4583 15.0583 25.1333 14.95 24.6999C14.8417 24.2666 14.4083 23.9416 13.975 24.0499ZM4.00833 16.7916C1.84167 16.7916 0 18.5249 0 20.7999C0 21.8833 0.433333 22.8583 1.19167 23.6166C1.84167 24.2666 3.14167 25.6749 3.14167 25.6749C3.35833 25.8916 3.68333 25.9999 4.00833 25.9999C4.33333 25.9999 4.55 25.8916 4.76667 25.6749C4.76667 25.6749 6.28333 24.1583 6.825 23.5083C7.475 22.7499 7.90833 21.7749 7.90833 20.6916C7.90833 18.5249 6.175 16.7916 4.00833 16.7916ZM4.00833 18.9583C4.98333 18.9583 5.85 19.7166 5.85 20.7999C5.85 21.3416 5.63333 21.8833 5.2 22.2083C5.09167 22.2083 5.09167 22.3166 4.98333 22.3166C4.33333 22.7499 3.35833 22.6416 2.81667 22.0999C2.38333 21.6666 2.16667 21.2333 2.16667 20.7999C2.16667 19.7166 2.925 18.9583 4.00833 18.9583Z" fill="url(#paint0_linear_85789_9631)"/>
</g>
<defs>
<linearGradient id="paint0_linear_85789_9631" x1="13" y1="0.0371094" x2="13" y2="25.9999" gradientUnits="userSpaceOnUse">
<stop stop-color="#A0C3F1"/>
<stop offset="1" stop-color="#619BE9"/>
</linearGradient>
<clipPath id="clip0_85789_9631">
<rect width="26" height="26" fill="white"/>
</clipPath>
</defs>
</svg>
