<svg width="38" height="38" viewBox="0 0 38 38" fill="none" xmlns="http://www.w3.org/2000/svg">
<g clip-path="url(#clip0_85376_34076)">
<path d="M37.2985 16.1474L35.189 16.7794C34.6624 16.99 33.9237 16.6741 33.713 16.146C33.5024 15.6193 33.8183 14.8806 34.3464 14.6699L36.4544 14.038C36.981 13.8259 37.7198 14.1433 37.9319 14.6699C38.1411 15.4087 37.8251 16.0406 37.2985 16.1474ZM3.66153 14.4578C4.18816 14.6685 4.5056 15.1951 4.29348 15.9353C4.08283 16.3552 3.5562 16.6726 2.81746 16.5673L0.709482 15.9338C0.182854 15.7232 -0.134586 15.1951 0.076065 14.4564C0.286716 13.9297 0.814808 13.6138 1.55355 13.8244L3.66007 14.4578M29.1796 4.86148C29.4956 4.44018 30.1275 4.33485 30.7595 4.65083C31.1837 4.96827 31.2876 5.70555 30.9716 6.23364L29.6009 8.02564C29.2849 8.44695 28.6515 8.55227 28.0196 8.23629C27.5968 7.92032 27.4929 7.07625 27.9142 6.65495L29.1796 4.86295M8.51236 7.92178L7.24699 6.02299C6.92955 5.60169 7.03488 4.86441 7.45764 4.44311C7.98427 4.12567 8.72301 4.23099 9.03899 4.75762L10.4097 6.55108C10.6203 6.97239 10.515 7.81645 10.0937 8.13243C9.56708 8.44841 8.82834 8.34308 8.51236 7.92178ZM18.0019 4.12567V1.9109C18.0019 1.27895 18.4232 0.750854 19.0552 0.750854C19.6886 0.750854 20.1114 1.17362 20.1114 1.9109V4.12567C20.1114 4.75762 19.6886 5.28571 19.0566 5.28571C18.53 5.18039 18.0019 4.75908 18.0019 4.12567ZM30.2329 19.4286V30.6048H8.0896V19.4286C8.0896 13.3139 13.0458 8.25239 19.162 8.25239C25.2767 8.25239 30.2329 13.2071 30.2329 19.4286ZM19.2585 25.3503C19.4515 25.3523 19.6414 25.3018 19.8079 25.2041C19.9744 25.1064 20.1111 24.9653 20.2035 24.7958L22.3144 20.7935C22.3951 20.6422 22.4335 20.472 22.4255 20.3008C22.4175 20.1296 22.3635 19.9637 22.2691 19.8207C22.1704 19.6732 22.0367 19.5526 21.88 19.4696C21.7232 19.3866 21.5483 19.3439 21.3709 19.3452H18.8562L20.2021 16.7896C20.2634 16.6714 20.2999 16.5418 20.3092 16.409C20.3186 16.2761 20.3007 16.1427 20.2565 16.0171C20.2124 15.8914 20.143 15.7761 20.0526 15.6782C19.9623 15.5804 19.8528 15.5021 19.731 15.4482C19.4824 15.3282 19.1973 15.3077 18.9341 15.3909C18.6709 15.4741 18.4494 15.6547 18.315 15.8958L16.2026 19.8982C16.1221 20.0495 16.084 20.2198 16.0922 20.391C16.1005 20.5622 16.1548 20.7281 16.2494 20.871C16.4396 21.165 16.7804 21.3464 17.1476 21.3464H19.6623L18.3164 23.902C18.2551 24.0203 18.2186 24.1498 18.2093 24.2827C18.1999 24.4155 18.2178 24.5489 18.2619 24.6746C18.3061 24.8003 18.3755 24.9156 18.4658 25.0134C18.5562 25.1112 18.6657 25.1895 18.7875 25.2435C18.9396 25.3166 19.1005 25.3503 19.2585 25.3503ZM5.87629 35.0329V32.8196H32.3423V35.0344C32.3423 36.2997 31.3929 37.2491 30.1275 37.2491H8.0896C6.92955 37.2491 5.87629 36.1944 5.87629 35.0344" fill="url(#paint0_linear_85376_34076)"/>
</g>
<defs>
<linearGradient id="paint0_linear_85376_34076" x1="19.0037" y1="0.750854" x2="19.0037" y2="37.2491" gradientUnits="userSpaceOnUse">
<stop stop-color="#BBD4F5"/>
<stop offset="1" stop-color="#5C98E9"/>
</linearGradient>
<clipPath id="clip0_85376_34076">
<rect width="38" height="38" fill="white"/>
</clipPath>
</defs>
</svg>
