<svg width="26" height="26" viewBox="0 0 26 26" fill="none" xmlns="http://www.w3.org/2000/svg">
<g clip-path="url(#clip0_85783_9319)">
<path d="M10.4004 13.7539C16.1202 13.7541 20.8128 18.4214 20.7998 24.1543C20.7998 24.5964 20.7998 25.6356 19.3184 25.6357H1.48242C0.00064441 25.6357 3.34106e-08 24.5964 0 24.1543C0 18.4343 4.66739 13.7539 10.4004 13.7539ZM17.082 13.6846C21.983 13.6846 26 17.7013 26 22.6152C26 23.4212 25.3236 24.0977 24.5176 24.0977H22.2168C21.9308 19.4957 19.0971 15.634 15.0801 13.918C15.756 13.762 16.4061 13.6846 17.082 13.6846ZM10.4004 0.364258C11.9759 0.364345 13.4865 0.990439 14.6006 2.10449C15.7146 3.21855 16.3407 4.72918 16.3408 6.30469C16.3408 7.08487 16.1872 7.85831 15.8887 8.5791C15.5901 9.29971 15.1521 9.95431 14.6006 10.5059C14.049 11.0574 13.3945 11.4954 12.6738 11.7939C11.9531 12.0925 11.1805 12.2461 10.4004 12.2461C9.62035 12.2461 8.84764 12.0924 8.12695 11.7939C7.40616 11.4954 6.75089 11.0575 6.19922 10.5059C5.64766 9.95429 5.20969 9.29974 4.91113 8.5791C4.61257 7.85831 4.45898 7.08487 4.45898 6.30469C4.45909 4.72924 5.08524 3.21854 6.19922 2.10449C7.31337 0.990339 8.82474 0.364258 10.4004 0.364258ZM17.082 2.59961C19.539 2.59961 21.5537 4.60257 21.5537 7.05957C21.5535 9.51635 19.5386 11.5186 17.0947 11.5186C16.7049 11.5185 16.2632 11.3622 15.8994 11.2842C17.0823 10.0232 17.8225 8.24219 17.8096 6.31836C17.8096 4.97936 17.4457 3.71761 16.8477 2.59961H17.082Z" fill="currentColor"/>
</g>
<defs>
<clipPath id="clip0_85783_9319">
<rect width="26" height="26" fill="white"/>
</clipPath>
</defs>
</svg>
