<svg width="38" height="38" viewBox="0 0 38 38" fill="none" xmlns="http://www.w3.org/2000/svg">
<path d="M32.2949 7.06596C31.8964 6.70418 31.3717 6.50622 30.8291 6.50622C30.7796 6.50622 30.7301 6.50622 30.6807 6.50964C30.6507 6.51302 30.3052 6.5336 29.7652 6.5336C28.8702 6.5336 27.123 6.47216 25.4678 6.07973C23.3307 5.57122 20.8641 3.21639 20.1466 2.75227C19.7848 2.51687 19.3685 2.40082 18.9513 2.40082C18.5358 2.40082 18.1195 2.51687 17.7586 2.74889C17.6716 2.80691 15.089 5.47901 12.5628 6.07973C10.9085 6.47216 9.12796 6.5336 8.23382 6.5336C7.69375 6.5336 7.34914 6.51302 7.31503 6.50964C7.2681 6.50622 7.22116 6.50622 7.17339 6.50622C6.6299 6.50622 6.1035 6.70414 5.70337 7.06596C5.26913 7.45839 5.02173 8.0078 5.02173 8.58455V13.782C5.02173 32.9954 18.0206 35.4696 18.5717 35.5684C18.698 35.589 18.8251 35.5992 18.9522 35.5992C19.0785 35.5992 19.2073 35.589 19.3318 35.5684C19.8838 35.4695 32.9782 32.9953 32.9782 13.782V8.58455C32.9782 8.0078 32.7299 7.45842 32.2949 7.06596ZM27.4898 14.4987L18.4778 23.2181C18.4215 23.3101 18.3524 23.4024 18.2688 23.4809C18.0043 23.7368 17.6545 23.8597 17.3081 23.8528C16.9618 23.8597 16.6127 23.7368 16.3483 23.4809C16.2647 23.4024 16.1948 23.3101 16.1385 23.2181L11.3224 18.5564C10.8096 18.0615 10.8096 17.2596 11.3224 16.7613C11.8351 16.2666 12.6669 16.2666 13.1797 16.7613L17.3081 20.7576L25.6333 12.7037C26.1461 12.2089 26.9771 12.2089 27.4898 12.7037C28.0026 13.1984 28.0026 14.0039 27.4898 14.4987Z" fill="url(#paint0_linear_85375_34068)"/>
<defs>
<linearGradient id="paint0_linear_85375_34068" x1="19" y1="2.40082" x2="19" y2="35.5992" gradientUnits="userSpaceOnUse">
<stop stop-color="#CBDEF7"/>
<stop offset="1" stop-color="#5191E8"/>
</linearGradient>
</defs>
</svg>
