<svg width="26" height="26" viewBox="0 0 26 26" fill="none" xmlns="http://www.w3.org/2000/svg">
<path d="M22.0966 4.83452C21.824 4.58698 21.4649 4.45154 21.0937 4.45154C21.0598 4.45154 21.026 4.45154 20.9921 4.45387C20.9717 4.45619 20.7353 4.47027 20.3658 4.47027C19.7534 4.47027 18.5579 4.42823 17.4255 4.15973C15.9632 3.8118 14.2756 2.2006 13.7846 1.88305C13.5371 1.72198 13.2522 1.64258 12.9668 1.64258C12.6825 1.64258 12.3977 1.72198 12.1507 1.88073C12.0912 1.92043 10.3242 3.74871 8.59573 4.15973C7.46385 4.42823 6.24556 4.47027 5.63378 4.47027C5.26426 4.47027 5.02847 4.45619 5.00514 4.45387C4.97302 4.45154 4.94091 4.45154 4.90822 4.45154C4.53636 4.45154 4.1762 4.58696 3.90242 4.83452C3.60531 5.10302 3.43604 5.47893 3.43604 5.87355V9.42971C3.43604 22.5757 12.33 24.2686 12.7071 24.3362C12.7935 24.3503 12.8804 24.3573 12.9674 24.3573C13.0538 24.3573 13.1419 24.3503 13.2272 24.3362C13.6048 24.2685 22.5641 22.5757 22.5641 9.42971V5.87355C22.5641 5.47893 22.3943 5.10304 22.0966 4.83452ZM18.8089 9.92005L12.6428 15.886C12.6043 15.949 12.557 16.0121 12.4998 16.0658C12.3188 16.2409 12.0795 16.325 11.8425 16.3203C11.6055 16.325 11.3667 16.2409 11.1858 16.0658C11.1286 16.0121 11.0808 15.949 11.0422 15.886L7.74701 12.6964C7.39614 12.3578 7.39614 11.8091 7.74701 11.4682C8.09782 11.1297 8.66694 11.1297 9.01781 11.4682L11.8425 14.2025L17.5387 8.69194C17.8896 8.35334 18.4581 8.35334 18.8089 8.69194C19.1598 9.03042 19.1598 9.58153 18.8089 9.92005Z" fill="currentColor"/>
</svg>
