<svg width="26" height="26" viewBox="0 0 26 26" fill="none" xmlns="http://www.w3.org/2000/svg">
<g clip-path="url(#clip0_85783_9308)">
<path d="M25.5201 11.0482L24.0768 11.4806C23.7164 11.6247 23.211 11.4085 23.0669 11.0472C22.9227 10.6868 23.1389 10.1814 23.5002 10.0373L24.9425 9.60487C25.3029 9.45974 25.8083 9.67693 25.9535 10.0373C26.0966 10.5427 25.8804 10.9751 25.5201 11.0482ZM2.50532 9.89213C2.86565 10.0363 3.08284 10.3966 2.93771 10.903C2.79358 11.1903 2.43326 11.4075 1.9278 11.3354L0.485499 10.902C0.125175 10.7579 -0.0920212 10.3966 0.0521087 9.89112C0.196239 9.5308 0.557564 9.3146 1.06302 9.45874L2.50432 9.89213M19.9651 3.32621C20.1813 3.03795 20.6136 2.96588 21.046 3.18208C21.3363 3.39927 21.4074 3.90373 21.1912 4.26505L20.2533 5.49116C20.0371 5.77942 19.6037 5.85148 19.1713 5.63529C18.8821 5.41909 18.811 4.84157 19.0993 4.55331L19.9651 3.32721M5.82431 5.42009L4.95853 4.12092C4.74134 3.83266 4.8134 3.32821 5.10266 3.03995C5.46299 2.82275 5.96844 2.89482 6.18464 3.25514L7.12248 4.48225C7.26661 4.77051 7.19455 5.34803 6.90629 5.56422C6.54596 5.78042 6.04051 5.70835 5.82431 5.42009ZM12.3172 2.82275V1.30739C12.3172 0.874998 12.6054 0.513672 13.0378 0.513672C13.4712 0.513672 13.7605 0.802933 13.7605 1.30739V2.82275C13.7605 3.25514 13.4712 3.61647 13.0388 3.61647C12.6785 3.5444 12.3172 3.25614 12.3172 2.82275ZM20.6857 13.2932V20.9401H5.53505V13.2932C5.53505 9.10942 8.92611 5.6463 13.1109 5.6463C17.2947 5.6463 20.6857 9.03635 20.6857 13.2932ZM13.1769 17.3448C13.309 17.3462 13.4389 17.3117 13.5528 17.2448C13.6667 17.178 13.7603 17.0815 13.8235 16.9655L15.2678 14.227C15.323 14.1236 15.3493 14.0071 15.3438 13.89C15.3384 13.7728 15.3014 13.6593 15.2368 13.5614C15.1693 13.4606 15.0778 13.378 14.9706 13.3212C14.8633 13.2645 14.7436 13.2352 14.6222 13.2361H12.9017L13.8225 11.4876C13.8645 11.4067 13.8894 11.318 13.8959 11.2271C13.9023 11.1362 13.89 11.045 13.8598 10.959C13.8296 10.873 13.7821 10.7941 13.7203 10.7272C13.6585 10.6602 13.5836 10.6066 13.5002 10.5697C13.3301 10.4876 13.1351 10.4736 12.955 10.5305C12.7749 10.5875 12.6234 10.711 12.5314 10.876L11.0861 13.6145C11.031 13.718 11.0049 13.8345 11.0105 13.9517C11.0162 14.0688 11.0533 14.1823 11.1181 14.2801C11.2482 14.4813 11.4814 14.6054 11.7326 14.6054H13.4532L12.5324 16.3539C12.4904 16.4348 12.4654 16.5235 12.459 16.6144C12.4526 16.7053 12.4649 16.7966 12.4951 16.8825C12.5253 16.9685 12.5728 17.0474 12.6346 17.1144C12.6964 17.1813 12.7713 17.2349 12.8546 17.2718C12.9587 17.3218 13.0688 17.3448 13.1769 17.3448ZM4.02069 23.9698V22.4555H22.129V23.9708C22.129 24.8366 21.4794 25.4862 20.6136 25.4862H5.53505C4.74134 25.4862 4.02069 24.7645 4.02069 23.9708" fill="url(#paint0_linear_85783_9308)"/>
</g>
<defs>
<linearGradient id="paint0_linear_85783_9308" x1="13.0026" y1="0.513672" x2="13.0026" y2="25.4862" gradientUnits="userSpaceOnUse">
<stop stop-color="#BBD4F5"/>
<stop offset="1" stop-color="#5C98E9"/>
</linearGradient>
<clipPath id="clip0_85783_9308">
<rect width="26" height="26" fill="white"/>
</clipPath>
</defs>
</svg>
