<svg width="38" height="38" viewBox="0 0 38 38" fill="none" xmlns="http://www.w3.org/2000/svg">
<g clip-path="url(#clip0_85375_34043)">
<path d="M15.2002 20.1016C23.56 20.1017 30.4193 26.9229 30.4004 35.3018C30.4004 35.9477 30.4 37.4676 28.2344 37.4678H2.16602C1.56239e-05 37.4678 0 35.9478 0 35.3018C0.000126903 26.9419 6.82127 20.1016 15.2002 20.1016ZM24.9658 20C32.1287 20 37.9999 25.8709 38 33.0527C38 34.2307 37.012 35.2188 35.834 35.2188H32.4707C32.0526 28.4929 27.911 22.8498 22.04 20.3418C23.028 20.1138 23.9779 20 24.9658 20ZM15.2002 0.532227C17.503 0.532254 19.7115 1.44685 21.3398 3.0752C22.9682 4.70354 23.8828 6.91202 23.8828 9.21484C23.8828 10.3551 23.658 11.4846 23.2217 12.5381C22.7853 13.5914 22.146 14.5483 21.3398 15.3545C20.5336 16.1608 19.5759 16.8009 18.5225 17.2373C17.4692 17.6735 16.3402 17.8984 15.2002 17.8984C14.0599 17.8984 12.9304 17.6737 11.877 17.2373C10.8235 16.8009 9.8668 16.1607 9.06055 15.3545C8.25429 14.5482 7.61409 13.5915 7.17773 12.5381C6.74137 11.4846 6.51758 10.3551 6.51758 9.21484C6.51761 6.91202 7.4322 4.70354 9.06055 3.0752C10.6889 1.44689 12.8974 0.532227 15.2002 0.532227ZM24.9658 3.7998C28.5568 3.7998 31.502 6.72638 31.502 10.3174C31.5017 13.9081 28.5571 16.8338 24.9854 16.834C24.4154 16.834 23.7693 16.6062 23.2373 16.4922C24.9662 14.6493 26.0492 12.0462 26.0303 9.23438C26.0303 7.27738 25.498 5.4338 24.624 3.7998H24.9658Z" fill="url(#paint0_linear_85375_34043)"/>
</g>
<defs>
<linearGradient id="paint0_linear_85375_34043" x1="19" y1="0.532227" x2="19" y2="37.4678" gradientUnits="userSpaceOnUse">
<stop stop-color="#C1D7F5"/>
<stop offset="1" stop-color="#609AEA"/>
</linearGradient>
<clipPath id="clip0_85375_34043">
<rect width="38" height="38" fill="white"/>
</clipPath>
</defs>
</svg>
