<svg width="26" height="26" viewBox="0 0 26 26" fill="none" xmlns="http://www.w3.org/2000/svg">
<path d="M14.1055 2.99585L22.0495 8.69771C22.4338 8.9735 22.7469 9.33683 22.9629 9.75763C23.1788 10.1784 23.2915 10.6446 23.2916 11.1176V20.3124C23.2916 21.9577 21.9577 23.2916 20.3124 23.2916H16.2499V18.9582C16.2499 17.1634 14.7947 15.7082 12.9999 15.7082C11.2051 15.7082 9.74992 17.1634 9.74992 18.9582V23.2916H5.68742C4.04211 23.2916 2.70825 21.9577 2.70825 20.3124V11.1179C2.70827 10.6448 2.82094 10.1786 3.03692 9.75775C3.2529 9.3369 3.56599 8.97353 3.95029 8.69771L11.8944 2.99585C12.2166 2.76455 12.6033 2.64014 12.9999 2.64014C13.3966 2.64014 13.7832 2.76455 14.1055 2.99585Z" fill="url(#paint0_linear_85783_9289)"/>
<defs>
<linearGradient id="paint0_linear_85783_9289" x1="12.9999" y1="2.64014" x2="12.9999" y2="23.2916" gradientUnits="userSpaceOnUse">
<stop stop-color="#B4CFF4"/>
<stop offset="1" stop-color="#689FEB"/>
</linearGradient>
</defs>
</svg>
