<svg width="38" height="38" viewBox="0 0 38 38" fill="none" xmlns="http://www.w3.org/2000/svg">
<g clip-path="url(#clip0_85375_34031)">
<path d="M36.8917 3.48332L27.3917 0.158323C26.9167 -1.01179e-05 26.4417 -1.01179e-05 25.9667 0.316657C25.65 0.633323 25.3333 1.10832 25.3333 1.58332V15.8333C25.3333 16.7833 25.9667 17.4167 26.9167 17.4167C27.8667 17.4167 28.5 16.7833 28.5 15.8333V11.875L37.2083 6.33332C37.8417 6.01666 38 5.38332 38 4.74999C38 4.11666 37.525 3.64166 36.8917 3.48332ZM28.5 8.07499V3.79999L32.775 5.38332L28.5 8.07499ZM14.725 34.3583C14.25 34.2 13.775 34.0417 13.3 33.725C12.6667 33.4083 12.0333 33.725 11.7167 34.3583C11.4 34.9917 11.7167 35.625 12.35 35.9417C12.825 36.1 13.3 36.4167 13.9333 36.575H14.4083C14.8833 36.575 15.3583 36.2583 15.5167 35.7833C15.675 35.3083 15.3583 34.5167 14.725 34.3583ZM9.975 12.1917C10.1333 12.35 10.2917 12.35 10.6083 12.35C11.0833 12.35 11.4 12.1917 11.7167 11.7167C11.875 11.4 12.0333 11.0833 12.35 10.7667C12.825 10.2917 12.825 9.49999 12.35 9.02499C11.875 8.54999 11.0833 8.54999 10.6083 9.02499C10.2917 9.49999 9.81667 9.97499 9.5 10.45C9.18333 11.0833 9.34167 11.875 9.975 12.1917ZM11.2417 15.5167C11.0833 14.8833 10.45 14.4083 9.81667 14.5667C9.18333 14.725 8.70833 15.3583 8.86667 15.9917C9.025 16.625 9.18333 17.2583 9.34167 17.7333C9.5 18.2083 9.975 18.525 10.45 18.525C10.6083 18.525 10.7667 18.525 10.925 18.3667C11.5583 18.05 11.875 17.4167 11.5583 16.7833C11.4 16.4667 11.2417 15.9917 11.2417 15.5167ZM15.3583 20.5833C14.8833 20.425 14.5667 20.1083 14.0917 19.95C13.6167 19.6333 12.825 19.7917 12.5083 20.2667C12.1917 20.7417 12.35 21.5333 12.825 21.85C13.3 22.1667 13.775 22.4833 14.4083 22.8C14.5667 22.9583 14.725 22.9583 14.8833 22.9583C15.3583 22.9583 15.675 22.6417 15.9917 22.325C16.15 21.5333 15.8333 20.9 15.3583 20.5833ZM23.5917 9.49999C23.275 9.18332 22.8 8.86666 22.4833 8.54999C22.0083 8.23332 21.2167 8.23332 20.9 8.86666C20.5833 9.34166 20.5833 10.1333 21.2167 10.45C21.5333 10.6083 21.85 10.925 22.1667 11.2417C22.325 11.4 22.6417 11.5583 22.9583 11.5583C23.275 11.5583 23.5917 11.4 23.9083 11.0833C24.0667 10.7667 24.0667 9.97499 23.5917 9.49999ZM25.65 31.5083C25.0167 31.35 24.3833 31.6667 24.0667 32.3L23.9083 32.6167L23.4333 33.5667C23.1167 34.0417 23.275 34.8333 23.75 35.15C23.9083 35.3083 24.225 35.3083 24.3833 35.3083C24.7 35.3083 25.175 35.15 25.3333 34.8333C25.65 34.3583 25.8083 33.8833 25.9667 33.4083L26.125 33.0917C26.6 32.3 26.2833 31.6667 25.65 31.5083ZM18.525 8.07499C18.525 7.44166 18.05 6.80832 17.4167 6.80832H15.675C15.0417 6.80832 14.5667 7.44166 14.5667 8.07499C14.5667 8.70832 15.2 9.18332 15.675 9.18332H17.2583C17.8917 9.18332 18.525 8.70832 18.525 8.07499ZM25.4917 25.8083C25.0167 25.3333 24.3833 25.3333 23.75 25.65C23.275 26.125 23.1167 26.7583 23.5917 27.3917C23.9083 27.7083 24.0667 28.1833 24.225 28.5C24.3833 28.975 24.8583 29.2917 25.3333 29.2917C25.4917 29.2917 25.65 29.2917 25.8083 29.1333C26.4417 28.8167 26.7583 28.1833 26.4417 27.55C26.125 26.9167 25.8083 26.4417 25.4917 25.8083ZM21.2167 22.8C20.7417 22.4833 20.1083 22.325 19.6333 22.1667C19 22.0083 18.3667 22.325 18.05 22.8C17.8917 23.4333 18.2083 24.0667 18.6833 24.3833C19.1583 24.5417 19.6333 24.7 20.1083 25.0167C20.2667 25.0167 20.425 25.175 20.5833 25.175C21.0583 25.175 21.5333 24.8583 21.6917 24.5417C22.1667 23.75 21.85 22.9583 21.2167 22.8ZM20.425 35.15H19C18.3667 35.15 17.8917 35.625 17.8917 36.2583C17.8917 36.8917 18.3667 37.525 19 37.525H19.475C19.95 37.525 20.425 37.525 20.9 37.3667C21.5333 37.2083 22.0083 36.7333 21.85 36.1C21.6917 35.4667 21.0583 34.9917 20.425 35.15ZM5.85833 24.5417C2.69167 24.5417 0 27.075 0 30.4C0 31.9833 0.633333 33.4083 1.74167 34.5167C2.69167 35.4667 4.59167 37.525 4.59167 37.525C4.90833 37.8417 5.38333 38 5.85833 38C6.33333 38 6.65 37.8417 6.96667 37.525C6.96667 37.525 9.18333 35.3083 9.975 34.3583C10.925 33.25 11.5583 31.825 11.5583 30.2417C11.5583 27.075 9.025 24.5417 5.85833 24.5417ZM5.85833 27.7083C7.28333 27.7083 8.55 28.8167 8.55 30.4C8.55 31.1917 8.23333 31.9833 7.6 32.4583C7.44167 32.4583 7.44167 32.6167 7.28333 32.6167C6.33333 33.25 4.90833 33.0917 4.11667 32.3C3.48333 31.6667 3.16667 31.0333 3.16667 30.4C3.16667 28.8167 4.275 27.7083 5.85833 27.7083Z" fill="#0BF9FE"/>
</g>
<defs>
<clipPath id="clip0_85375_34031">
<rect width="38" height="38" fill="white"/>
</clipPath>
</defs>
</svg>
