<svg width="16" height="16" viewBox="0 0 16 16" fill="none" xmlns="http://www.w3.org/2000/svg">
<path d="M7.99984 2.66672C7.50892 2.66672 7.11095 3.06469 7.11095 3.55561V7.11116H3.55539C3.06447 7.11116 2.6665 7.50913 2.6665 8.00005C2.6665 8.49097 3.06447 8.88894 3.55539 8.88894H7.11095V12.4445C7.11095 12.9354 7.50892 13.3334 7.99984 13.3334C8.49076 13.3334 8.88873 12.9354 8.88873 12.4445V8.88894H12.4443C12.9352 8.88894 13.3332 8.49097 13.3332 8.00005C13.3332 7.50913 12.9352 7.11116 12.4443 7.11116H8.88873V3.55561C8.88873 3.06469 8.49076 2.66672 7.99984 2.66672Z" fill="currentColor"/>
</svg>
