<svg width="25" height="24" viewBox="0 0 25 24" fill="none" xmlns="http://www.w3.org/2000/svg">
<path d="M17.5996 4.5C18.8142 4.50026 19.7994 5.48471 19.7998 6.69922V8.21875L22.6074 6.81641C22.9484 6.646 23.3535 6.66387 23.6777 6.86426C24.0018 7.06468 24.1992 7.41873 24.1992 7.7998V17.7002C24.1991 18.0812 24.0018 18.4354 23.6777 18.6357C23.3535 18.8362 22.9484 18.854 22.6074 18.6836L19.7998 17.2793V18.7998C19.7997 20.0146 18.8143 20.9997 17.5996 21H2.19922C0.984437 20.9998 0.000105143 20.0146 0 18.7998V6.69922C0.000422136 5.48468 0.984632 4.50021 2.19922 4.5H17.5996ZM2.19922 18.7998H17.5996V6.69922H2.19922V18.7998ZM9.89941 8.35059C12.3292 8.35085 14.2997 10.3202 14.2998 12.75C14.2997 15.1798 12.3292 17.1501 9.89941 17.1504C7.46952 17.1503 5.50011 15.1799 5.5 12.75C5.50011 10.3201 7.46952 8.35069 9.89941 8.35059ZM19.7998 10.6787V14.8193L21.999 15.9189V9.5791L19.7998 10.6787ZM9.89941 10.5498C8.68454 10.5499 7.69932 11.5351 7.69922 12.75C7.69932 13.9649 8.68454 14.9501 9.89941 14.9502C11.1142 14.9499 12.0995 13.9648 12.0996 12.75C12.0995 11.5352 11.1142 10.5501 9.89941 10.5498Z" fill="currentColor"/>
</svg>
