<svg t="1781064804993" class="icon" viewBox="0 0 1024 1024" version="1.1" xmlns="http://www.w3.org/2000/svg" p-id="3503" width="24" height="24"><path d="M1011.85881004 294.01645878c-24.42918996-33.82503226-71.40840143-41.3417061-105.2334337-18.79168458l-75.16673836 52.61671684V324.08315412c0-103.35426524-84.56258064-187.91684588-187.91684586-187.91684587H192.54136202c-103.35426524 0-187.91684588 84.56258064-187.91684589 187.91684587v375.83369176c0 103.35426524 84.56258064 187.91684588 187.91684589 187.91684587h451.0004301c99.59592831 0 180.40017204-77.04590681 187.91684586-172.8834982l77.04590683 52.61671685c13.15417921 9.39584229 28.18752688 13.15417921 43.22087455 13.1541792 41.3417061 0 75.16673836-33.82503226 75.16673835-75.16673835V337.23733333c-1.87916846-15.03334767-5.63750538-30.06669535-15.03334767-43.22087455zM756.29189965 699.91684588c0 62.01255914-50.73754838 112.75010753-112.75010753 112.75010753H192.54136202c-62.01255914 0-112.75010753-50.73754838-112.75010753-112.75010753V324.08315412c0-62.01255914 50.73754838-112.75010753 112.75010753-112.75010753h451.0004301c62.01255914 0 112.75010753 50.73754838 112.75010753 112.75010753v375.83369176z m193.55435124 5.63750537L831.45863798 622.87093906V419.92074551l118.38761291-82.68341218v368.31701792z" fill="currentColor" p-id="3504"></path><path d="M181.89274075 376.07348148a58.25422222 58.25422222 0 1 0 116.50844443 0 58.25422222 58.25422222 0 1 0-116.50844443 0z" fill="currentColor" p-id="3505"></path></svg>