<svg width="24" height="24" viewBox="0 0 24 24" fill="none" xmlns="http://www.w3.org/2000/svg">
<path d="M12 4C7.58173 4 4 7.58173 4 12C4 16.4183 7.58173 20 12 20C14.2094 20 16.2081 19.1057 17.6568 17.6569C18.0474 17.2663 18.6805 17.2663 19.071 17.6568C19.4616 18.0474 19.4616 18.6805 19.0711 19.071C17.2625 20.8796 14.7612 22 12 22C6.47717 22 2 17.5228 2 12C2 6.47717 6.47717 2 12 2C14.7612 2 17.2625 3.12038 19.0711 4.92895C19.3233 5.18114 19.6565 5.53424 20 5.90549V4C20 3.44772 20.4477 3 21 3C21.5523 3 22 3.44772 22 4V8.5C22 9.05228 21.5523 9.5 21 9.5H16.5C15.9477 9.5 15.5 9.05228 15.5 8.5C15.5 7.94772 15.9477 7.5 16.5 7.5H18.7497C18.3399 7.05385 17.9361 6.62246 17.6568 6.34316L17.6568 6.34315C16.2081 4.89434 14.2094 4 12 4Z" fill="currentColor"/>
</svg>
