<svg width="14" height="14" viewBox="0 0 14 14" fill="none" xmlns="http://www.w3.org/2000/svg">
<path d="M7.875 1.85716C7.875 2.11088 7.76242 2.33888 7.58333 2.49602V3.57145H10.5C11.4665 3.57145 12.25 4.33896 12.25 5.28573V11C12.25 11.9468 11.4665 12.7143 10.5 12.7143H3.5C2.5335 12.7143 1.75 11.9468 1.75 11V5.28573C1.75 4.33896 2.5335 3.57145 3.5 3.57145H6.41667V2.49602C6.23108 2.33341 6.125 2.10105 6.125 1.85714C6.125 1.38376 6.51675 1 7 1C7.48325 1 7.875 1.38378 7.875 1.85716ZM10.5 4.71431H3.5C3.17783 4.71431 2.91667 4.97014 2.91667 5.28573V11C2.91667 11.3156 3.17783 11.5714 3.5 11.5714H10.5C10.8222 11.5714 11.0833 11.3156 11.0833 11V5.28573C11.0833 4.97014 10.8222 4.71431 10.5 4.71431ZM1.16667 9.85716V6.42859H0V9.85716H1.16667ZM12.8333 9.85716V6.42859H14V9.85716H12.8333ZM5.25 9.00002C5.73325 9.00002 6.125 8.61626 6.125 8.14288C6.125 7.66949 5.73325 7.28573 5.25 7.28573C4.76675 7.28573 4.375 7.66949 4.375 8.14288C4.375 8.61626 4.76675 9.00002 5.25 9.00002ZM8.75 9.00002C9.23325 9.00002 9.625 8.61626 9.625 8.14288C9.625 7.66949 9.23325 7.28573 8.75 7.28573C8.26675 7.28573 7.875 7.66949 7.875 8.14288C7.875 8.61626 8.26675 9.00002 8.75 9.00002Z" fill="currentColor"/>
</svg>
