<svg width="14" height="14" viewBox="0 0 14 14" fill="none" xmlns="http://www.w3.org/2000/svg">
<path d="M12.2499 12.2611L12.9888 12.2611L12.9888 4.87219L11.511 4.87219L11.511 1.91663L1.9054 1.91663L1.9054 4.87219L0.427613 4.87219L0.427613 12.2611L1.16651 12.2611L1.16651 13L2.64429 13L2.64429 12.2611L10.7721 12.2611L10.7721 13L12.2499 13L12.2499 12.2611ZM2.64429 4.87219L2.64429 2.65552L10.7721 2.65552L10.7721 4.87219L2.64429 4.87219ZM1.9054 5.61108L12.2499 5.61109L12.2499 11.5222L1.16651 11.5222L1.16651 5.61108L1.9054 5.61108ZM9.29431 9.30554C9.73765 9.30554 10.0332 9.00999 10.0332 8.56665C10.0332 8.12332 9.73765 7.82776 9.29431 7.82776C8.85098 7.82776 8.55542 8.12332 8.55542 8.56665C8.55542 9.00999 8.85098 9.30554 9.29431 9.30554ZM4.12207 9.30554C4.56541 9.30554 4.86096 9.00999 4.86096 8.56665C4.86096 8.12332 4.56541 7.82776 4.12207 7.82776C3.67874 7.82776 3.38318 8.12332 3.38318 8.56665C3.38318 9.00999 3.67874 9.30554 4.12207 9.30554Z" fill="currentColor"/>
</svg>
