<svg width="14" height="14" viewBox="0 0 14 14" fill="none" xmlns="http://www.w3.org/2000/svg">
<path d="M8.8855 0.875C8.16802 0.875 7.57799 1.38796 7.54372 2.03766L7.54202 3.39522H0.212118C0.095027 3.39522 0 3.48595 0 3.59774V6.71825C0 6.83005 0.095027 6.92078 0.212118 6.92078L3.26752 6.92063L5.41096 9.99802L2.53579 11.9163H0.927718C0.75023 11.9163 0.651121 12.1119 0.761434 12.2446L1.26678 12.854L1.46481 13.125L6.87001 9.51875C6.96331 9.45658 6.98861 9.3352 6.92737 9.24366L5.37363 6.92061H10.3067L12.4503 9.99802L9.52307 11.951H8.03499C7.91763 11.951 7.82266 12.0417 7.82266 12.1535C7.82266 12.1965 7.837 12.2384 7.86359 12.2731L8.26153 12.7927L8.5042 13.125L13.9094 9.51875C14.0026 9.45653 14.0279 9.33516 13.9666 9.24366L12.413 6.92061H12.5308C12.6479 6.92061 12.7429 6.83005 12.7429 6.71809V3.59807C12.7429 3.48628 12.6479 3.39555 12.5308 3.39555L10.229 3.39539V2.03782C10.193 1.38812 9.60281 0.875 8.8855 0.875ZM1.36623 12.3214H1.92861L1.56665 12.563L1.36623 12.3214ZM8.45278 12.3561H8.91606L8.60958 12.5605L8.45278 12.3561ZM9.95256 3.9947L13.4997 9.29777L12.7982 9.76601L9.11918 4.48465L9.95256 3.9947ZM2.07998 4.48465L2.91319 3.9947L6.46037 9.29777L5.75885 9.76601L2.07998 4.48465ZM0.424237 3.80027H2.43497L1.6705 4.24972C1.60774 4.28657 1.56951 4.35188 1.56951 4.42222C1.56951 4.46213 1.58185 4.50114 1.605 4.53437L1.64776 4.59547H1.09199C0.974902 4.59547 0.879873 4.6862 0.879873 4.79799V5.87817C0.879873 5.98996 0.974902 6.08071 1.09199 6.08071L2.68205 6.08054L2.98531 6.51557H0.424065L0.424237 3.80027ZM4.81159 6.08071H9.72143L10.0245 6.51573H5.10262L4.81159 6.08071ZM10.3259 3.80027H12.3187V6.51573L12.142 6.51557L10.3259 3.80027ZM1.30414 5.00035L1.92997 5.00051L2.40004 5.67548H1.30414V5.00035ZM4.08937 5.00051H8.96917L9.43923 5.67548H4.54093L4.08937 5.00051ZM7.34075 3.80027H9.47435L8.7097 4.24972C8.64701 4.28659 8.60883 4.35186 8.60883 4.42215C8.60883 4.46209 8.6212 4.50113 8.64437 4.53437L8.68679 4.59547H3.81819L3.28652 3.80027H5.27961L5.21581 3.86103L5.84436 4.46116L6.14439 4.17471L5.7524 3.80027H6.13778L6.08007 3.84434L6.58272 4.44447L6.91397 4.19138L6.58645 3.80027H6.8919L6.83421 3.84434L7.33703 4.44447L7.66828 4.19138L7.34075 3.80027ZM7.96643 2.98952C8.21974 3.20398 8.54695 3.32177 8.8855 3.32037C9.22407 3.32179 9.55129 3.204 9.80459 2.98952V3.39522H7.96643V2.98952ZM8.8855 1.28005C9.39579 1.28005 9.80475 1.64881 9.80475 2.0976C9.80475 2.5464 9.39578 2.91531 8.8855 2.91531C8.37521 2.91531 7.96626 2.54655 7.96626 2.09761C7.96626 1.6488 8.37523 1.28005 8.8855 1.28005Z" fill="currentColor"/>
</svg>
