<svg width="14" height="14" viewBox="0 0 14 14" fill="none" xmlns="http://www.w3.org/2000/svg">
<path d="M4.46713 6.45001C4.10242 6.58336 3.71707 6.65128 3.3288 6.65065C3.3263 6.65066 3.32381 6.65066 3.32131 6.65066C1.487 6.65066 0 5.16186 0 3.32533C0 1.4888 1.487 0 3.32131 0C5.15563 0 6.64263 1.4888 6.64263 3.32533C6.59883 3.96096 6.40757 4.5776 6.08403 5.12626L5.51503 4.80053C5.78306 4.35192 5.94456 3.84764 5.98708 3.32663C5.98293 1.86075 4.79487 0.67463 3.33076 0.67463C1.86371 0.67463 0.674424 1.86535 0.674424 3.33418C0.674424 4.80301 1.86371 5.99373 3.33076 5.99373C3.63927 5.99373 3.94543 5.93992 4.2355 5.83471L4.67925 5.64481L4.94179 6.24773L4.46713 6.45001ZM10.6859 6.65065C10.3005 6.65121 9.91812 6.58407 9.55598 6.45229C9.54177 6.44724 9.52796 6.44114 9.51466 6.43405L9.24203 6.28943L9.54817 5.70768L9.8003 5.84123C10.087 5.9433 10.389 5.99547 10.6933 5.99547C12.1654 5.99547 13.3588 4.80066 13.3588 3.3268C13.3588 1.85293 12.1654 0.658129 10.6933 0.658129C9.22183 0.658129 8.02871 1.85203 8.02789 3.32532C8.07043 3.84634 8.23193 4.35061 8.49995 4.79923L7.93094 5.12496C7.60741 4.5763 7.41615 3.95965 7.37235 3.32402C7.37719 1.49507 8.85942 0.014975 10.6862 0.014975C12.5163 0.014975 14 1.50042 14 3.33282C14 5.16521 12.516 6.65065 10.6859 6.65065ZM6.64295 10.676C6.64224 12.5092 5.1598 13.996 3.3288 14C1.49382 14 0.00681792 12.5112 0.00681792 10.6747C0.00681792 8.83814 1.49382 7.34934 3.32813 7.34934C3.71375 7.34934 4.09642 7.41657 4.459 7.54803C4.47319 7.55312 4.48699 7.55922 4.50032 7.56627L4.97986 7.82457L4.66754 8.40273L4.215 8.15909C3.9283 8.05702 3.62626 8.00485 3.32197 8.00485C1.84988 8.00485 0.65652 9.19965 0.65652 10.6735C0.65652 12.1474 1.84988 13.3422 3.32197 13.3422C4.7936 13.3422 5.98678 12.1481 5.98741 10.6747C5.94494 10.1535 5.78343 9.64915 5.51535 9.20043L6.08436 8.87471C6.40797 9.42345 6.59924 10.0402 6.64295 10.676ZM13.9995 10.676C13.9995 12.5093 12.5169 13.9965 10.6859 14C8.85459 13.9957 7.37234 12.5082 7.37235 10.6747C7.41606 10.0389 7.60733 9.42215 7.93094 8.87341L8.49995 9.19913C8.23189 9.64785 8.07038 10.1522 8.02789 10.6734C8.03228 12.1391 9.22027 13.3249 10.6842 13.3249C12.1513 13.3249 13.3406 12.1342 13.3406 10.6654C13.3406 9.19656 12.1513 8.00584 10.6842 8.00584C10.3864 8.00584 10.0906 8.05599 9.80941 8.1542L9.52605 8.32749L9.1864 7.76626L9.49839 7.57572C9.51693 7.56445 9.53655 7.55506 9.55695 7.5477C9.91706 7.41817 10.2968 7.35195 10.6795 7.35195C12.5131 7.35195 13.9995 8.84017 13.9995 10.676ZM4.74302 2.16183L3.93912 2.96833L3.47552 2.50417L4.27974 1.6967L4.74302 2.16183ZM2.78875 4.12302L2.06163 4.8533L1.59705 4.38849L2.32515 3.65789L2.78875 4.12302ZM12.7276 9.51639L11.9573 10.289L11.4937 9.82322L12.264 9.05125L12.7276 9.51639ZM10.748 11.501L10.0443 12.2082L9.5807 11.743L10.285 11.0365L10.748 11.501ZM4.69682 11.944L4.24558 12.4228L3.50578 11.7209L3.95636 11.2431L4.69682 11.944ZM2.84893 10.1294L2.38403 10.5955L1.72686 9.93592L2.19176 9.46981L2.84893 10.1294ZM12.4293 4.38393L11.9703 4.85363L11.2815 4.17677L11.7406 3.70707L12.4293 4.38393ZM10.6445 2.60547L10.1809 3.07061L9.48343 2.37095L9.94703 1.90581L10.6445 2.60547ZM4.23843 10.8678C4.23843 11.4797 3.74376 11.9761 3.13262 11.9776C2.52172 11.9761 2.02729 11.4798 2.02729 10.8682C2.02729 10.2554 2.5234 9.75873 3.13537 9.75873C3.17641 9.75873 3.21742 9.76101 3.2582 9.76557L5.22841 7.2083L3.35385 4.38979C3.28114 4.40539 3.20698 4.41325 3.13262 4.41325C3.13175 4.41325 3.13089 4.41325 3.13002 4.41325C2.51768 4.41325 2.02129 3.91625 2.02129 3.30318C2.02129 2.6901 2.51768 2.1931 3.13002 2.1931C3.74235 2.1931 4.23875 2.6901 4.23875 3.30318C4.23864 3.39865 4.22606 3.4937 4.20134 3.5859L6.94584 5.41811L9.91222 3.50871C9.89905 3.44099 9.8924 3.37216 9.89237 3.30317C9.89381 2.69256 10.3886 2.19831 10.9985 2.19831C11.6094 2.19831 12.1046 2.69414 12.1046 3.30578C12.1046 3.91742 11.6094 4.41325 10.9985 4.41325C10.8925 4.41328 10.7871 4.39792 10.6855 4.36764L8.80121 7.04413L10.7565 9.45678C10.8359 9.43811 10.9172 9.42871 10.9988 9.42877C10.9997 9.42877 11.0006 9.42876 11.0014 9.42876C11.6138 9.42876 12.1102 9.92576 12.1102 10.5388C12.1102 11.1519 11.6138 11.6489 11.0014 11.6489C10.3891 11.6489 9.8927 11.1519 9.8927 10.5388C9.89261 10.5074 9.89413 10.476 9.89725 10.4447L6.97414 8.67341L4.22834 10.7206C4.23504 10.7694 4.23841 10.8186 4.23843 10.8678ZM3.13262 10.4154V10.4141C3.1302 10.414 3.12778 10.414 3.12536 10.414C2.87238 10.414 2.66729 10.6194 2.66729 10.8727C2.66729 11.1259 2.87238 11.3313 3.12536 11.3313C3.37834 11.3313 3.58343 11.1259 3.58343 10.8727C3.58343 10.8149 3.57254 10.7577 3.55132 10.704C3.51065 10.5972 3.528 10.477 3.5972 10.3861C3.50852 10.459 3.38831 10.4803 3.28 10.4424C3.23278 10.425 3.18293 10.4159 3.13262 10.4154ZM10.5707 10.1643V10.163C10.5993 10.236 10.6009 10.3168 10.5752 10.391C10.5578 10.4378 10.5485 10.4872 10.5476 10.5372C10.5476 10.538 10.5476 10.5388 10.5476 10.5396C10.5476 10.7888 10.7493 10.9908 10.9982 10.9908C11.247 10.9908 11.4488 10.7888 11.4488 10.5396C11.4488 10.2905 11.247 10.0885 10.9982 10.0885C10.9281 10.0885 10.8591 10.1049 10.7965 10.1362C10.7269 10.1722 10.6469 10.1821 10.5707 10.1643ZM6.7617 6.08422L4.07869 4.29338L5.9051 7.0399C5.98244 7.15745 5.97669 7.31119 5.89079 7.42262L3.64925 10.3323L3.66161 10.3222L6.7604 8.01251C6.86712 7.93228 7.01196 7.92543 7.12575 7.99525L10.275 9.90465L8.13558 7.26562C8.04275 7.1511 8.0373 6.98875 8.12224 6.86824L9.95809 4.26048L7.11957 6.08715C7.01041 6.15785 6.86969 6.1567 6.7617 6.08422ZM10.6302 3.63281C10.6739 3.64048 10.7165 3.65699 10.7535 3.68134C10.8315 3.73462 10.9237 3.76312 11.0181 3.76312C11.2774 3.76312 11.4876 3.55268 11.4876 3.29309C11.4876 3.03351 11.2774 2.82307 11.0181 2.82307C10.7589 2.82307 10.5487 3.03351 10.5487 3.29309C10.5487 3.3654 10.5653 3.43673 10.5974 3.50154C10.6174 3.54251 10.6286 3.58723 10.6302 3.63281ZM3.13262 2.85107C2.88336 2.85107 2.68289 3.05275 2.68289 3.30154C2.68289 3.55034 2.88433 3.75202 3.13282 3.75202C3.20389 3.75202 3.27395 3.73517 3.33726 3.70284C3.37857 3.6816 3.42393 3.66938 3.47032 3.66701C3.47619 3.62081 3.49182 3.57639 3.51619 3.53672C3.56026 3.46653 3.58392 3.38543 3.58451 3.30252C3.58415 3.05296 3.38188 2.85089 3.13262 2.85107Z" fill="currentColor"/>
</svg>
