<svg width="24" height="24" viewBox="0 0 24 24" fill="none" xmlns="http://www.w3.org/2000/svg">
<path d="M20.1 21H3.9C3.66131 21 3.43239 20.9052 3.2636 20.7364C3.09482 20.5676 3 20.3387 3 20.1V3.9C3 3.66131 3.09482 3.43239 3.2636 3.2636C3.43239 3.09482 3.66131 3 3.9 3H20.1C20.3387 3 20.5676 3.09482 20.7364 3.2636C20.9052 3.43239 21 3.66131 21 3.9V20.1C21 20.3387 20.9052 20.5676 20.7364 20.7364C20.5676 20.9052 20.3387 21 20.1 21ZM4.8 19.2H19.2V4.8H4.8V19.2Z" fill="currentColor"/>
<path d="M18 6H14.543V9.42188H18V6ZM13.7284 6H10.2714V9.42188H13.7284V6ZM9.45695 6H6V9.42188H9.45695V6ZM18 10.2891H14.543V13.711H18V10.2891ZM13.7284 10.2891H10.2714V13.711H13.7284V10.2891ZM9.45695 10.2891H6V13.711H9.45695V10.2891ZM18 14.5781H14.543V18H18V14.5781ZM13.7284 14.5781H10.2714V18H13.7284V14.5781ZM9.45695 14.5781H6V18H9.45695V14.5781Z" fill="currentColor"/>
</svg>
