<svg width="24" height="24" viewBox="0 0 24 24" fill="none" xmlns="http://www.w3.org/2000/svg">
<path d="M20.1 21H3.9C3.66131 21 3.43239 20.9052 3.2636 20.7364C3.09482 20.5676 3 20.3387 3 20.1V3.9C3 3.66131 3.09482 3.43239 3.2636 3.2636C3.43239 3.09482 3.66131 3 3.9 3H20.1C20.3387 3 20.5676 3.09482 20.7364 3.2636C20.9052 3.43239 21 3.66131 21 3.9V20.1C21 20.3387 20.9052 20.5676 20.7364 20.7364C20.5676 20.9052 20.3387 21 20.1 21ZM4.8 19.2H19.2V4.8H4.8V19.2Z" fill="currentColor"/>
<path d="M6.6001 6.6001H11.1001V11.1001H6.6001V6.6001ZM12.9001 6.6001H17.4001V11.1001H12.9001V6.6001ZM6.6001 12.9001H11.1001V17.4001H6.6001V12.9001ZM12.9001 12.9001H17.4001V17.4001H12.9001V12.9001Z" fill="currentColor"/>
</svg>
