<svg width="16" height="16" viewBox="0 0 16 16" fill="none" xmlns="http://www.w3.org/2000/svg">
<path d="M13.0448 2.73493C12.925 2.73927 12.807 2.74094 12.6915 2.74094H12.691C9.65333 2.74094 8.31513 1.34872 8.30398 1.33672L8.00044 1.00439L7.69647 1.33671C7.68322 1.35127 6.27116 2.84788 2.95516 2.73493L2.5293 2.72039V9.03171C2.5293 10.6841 3.08097 13.0942 7.85145 14.9382L8.00003 14.9957L8.14853 14.9382C12.919 13.0942 13.4707 10.6841 13.4707 9.03171V2.72039L13.0448 2.73493ZM7.45605 10.9028L4.27145 8.08097L5.11759 7.39532L6.81084 8.64464C6.81084 8.64464 9.14881 6.22593 11.4061 5.09724L11.7285 5.46044C11.7285 5.46044 8.90714 7.7985 7.45605 10.9028Z" fill="currentColor"/>
</svg>
