<svg width="12" height="12" viewBox="0 0 12 12" fill="none" xmlns="http://www.w3.org/2000/svg">
<path d="M3.34691 1C3.15985 1 2.98684 1.09929 2.89247 1.26081L0.278783 5.7345C0.182951 5.89853 0.182951 6.10147 0.278783 6.2655L2.89247 10.7392C2.98684 10.9007 3.15985 11 3.34691 11H8.57421C8.76128 11 8.93429 10.9007 9.02866 10.7392L11.6422 6.26549C11.738 6.10147 11.738 5.89853 11.6422 5.73451L9.02866 1.26082C8.93429 1.0993 8.76128 1 8.57421 1H3.34691ZM1.34278 6L3.64898 2.05263H8.27214L10.5782 6L8.27214 9.94737H3.64898L1.34278 6ZM5.96052 4.1579C4.94472 4.1579 4.12738 4.98604 4.12738 6C4.12738 7.01396 4.94472 7.84211 5.96052 7.84211C6.97631 7.84211 7.79365 7.01396 7.79365 6C7.79365 4.98604 6.97631 4.1579 5.96052 4.1579ZM5.18001 6C5.18001 5.56059 5.53285 5.21053 5.96052 5.21053C6.38818 5.21053 6.74102 5.56059 6.74102 6C6.74102 6.43941 6.38818 6.78948 5.96052 6.78948C5.53285 6.78948 5.18001 6.43941 5.18001 6Z" fill="currentColor"/>
</svg>
