<svg width="20" height="20" viewBox="0 0 20 20" fill="none" xmlns="http://www.w3.org/2000/svg">
<path d="M10 20C15.5228 20 20 15.5228 20 10C20 4.47715 15.5228 0 10 0C4.47715 0 0 4.47715 0 10C0 15.5228 4.47715 20 10 20ZM16.0259 7.65193L10.7475 13.3073C10.1302 13.9687 9.09799 14.0169 8.4218 13.4158L5.2797 10.6228C4.93571 10.3171 4.90473 9.79035 5.21049 9.44636C5.51626 9.10238 6.04298 9.07139 6.38697 9.37716L9.52907 12.1701L14.8075 6.51473C15.1215 6.17828 15.6488 6.16009 15.9853 6.47412C16.3217 6.78815 16.3399 7.31547 16.0259 7.65193Z" fill="currentColor"/>
</svg>
