<svg width="16" height="16" viewBox="0 0 16 16" fill="none" xmlns="http://www.w3.org/2000/svg">
<path d="M13.0779 12.1501C13.3758 11.9032 13.4193 11.4589 13.1754 11.1575C12.9316 10.856 12.4926 10.812 12.1947 11.0587L10.4533 12.502L10.4533 2.03853C10.4533 1.64891 10.1415 1.33331 9.7565 1.33331C9.37154 1.33331 9.05971 1.64891 9.05971 2.03853L9.05971 13.9614C9.05971 14.351 9.37154 14.6666 9.7565 14.6666C9.90033 14.6666 10.0342 14.6223 10.1447 14.547C10.201 14.522 10.2545 14.4877 10.3037 14.4478L13.0779 12.1501Z" fill="#9FA29F"/>
<path d="M6.27252 2.03853C6.27252 1.64891 5.96069 1.33331 5.57573 1.33331C5.43192 1.33331 5.29806 1.37764 5.18756 1.45292C5.11049 1.48688 5.03969 1.53711 4.97795 1.5979L2.20376 4.40723C2.06786 4.54477 1.99992 4.72479 1.99992 4.90614C1.99992 5.0875 2.06786 5.26752 2.20376 5.40506C2.47563 5.68022 2.91647 5.6798 3.18971 5.40502L4.87893 3.6924L4.87893 13.9598C4.87893 14.3495 5.19076 14.6651 5.57573 14.6651C5.96047 14.6651 6.27252 14.3513 6.27252 13.9614L6.27252 2.03853Z" fill="#9FA29F"/>
</svg>
