<svg width="50" height="50" viewBox="0 0 50 50" fill="none" xmlns="http://www.w3.org/2000/svg">
<path d="M40.6246 21.8752C41.7751 21.8752 42.7075 22.8078 42.7076 23.9583C42.7076 33.0337 35.8812 40.5134 27.0826 41.5442V45.8323C27.0826 46.9828 26.1502 47.9152 24.9996 47.9153C23.8491 47.9153 22.9166 46.9829 22.9166 45.8323V41.5442C14.1185 40.513 7.29163 33.0334 7.29163 23.9583C7.29179 22.808 8.22437 21.8755 9.37463 21.8752C10.5251 21.8752 11.4575 22.8078 11.4576 23.9583C11.4576 31.4315 17.512 37.49 24.983 37.4993H25.0153C32.4872 37.4911 38.5416 31.4321 38.5416 23.9583C38.5418 22.808 39.4744 21.8755 40.6246 21.8752ZM25.0006 2.08423C30.1781 2.0844 34.3756 6.28168 34.3756 11.4592V25.0002C34.3754 30.1776 30.178 34.3751 25.0006 34.3752C19.8232 34.375 15.6258 30.1776 15.6256 25.0002V11.4592C15.6256 6.28169 19.8231 2.08442 25.0006 2.08423Z" fill="currentColor"/>
</svg>
