<svg width="24" height="24" viewBox="0 0 24 24" fill="none" xmlns="http://www.w3.org/2000/svg">
<path d="M12 3H13C13 2.44772 12.5523 2 12 2V3ZM12 21V22C12.5523 22 13 21.5523 13 21H12ZM5.89925 16.4195L6.76885 15.9258C6.59118 15.6129 6.25909 15.4195 5.89925 15.4195V16.4195ZM5.89925 7.5054V8.5054C6.25654 8.5054 6.58669 8.31477 6.76531 8.00534L5.89925 7.5054ZM16.6661 6.7541C16.2541 6.38625 15.622 6.42199 15.2541 6.83394C14.8862 7.24588 14.922 7.87804 15.3339 8.2459L16 7.5L16.6661 6.7541ZM16.8421 8.4294L17.6496 7.8396L17.6496 7.83959L16.8421 8.4294ZM16.8609 15.5447L17.6716 16.1302L17.6716 16.1301L16.8609 15.5447ZM15.3339 15.7541C14.922 16.122 14.8862 16.7541 15.2541 17.1661C15.622 17.578 16.2541 17.6138 16.6661 17.2459L16 16.5L15.3339 15.7541ZM16.6054 19.7342C16.1312 20.0172 15.9762 20.6311 16.2593 21.1054C16.5423 21.5796 17.1562 21.7346 17.6305 21.4515L17.118 20.5928L16.6054 19.7342ZM17.7796 2.6391C17.3099 2.34855 16.6936 2.49376 16.4031 2.96344C16.1125 3.43312 16.2577 4.04941 16.7274 4.33996L17.2535 3.48953L17.7796 2.6391ZM12 3H11V21H12H13V3H12ZM12 21V20C10.6762 20 9.40075 19.1145 8.36218 18.0211C7.86242 17.4949 7.45963 16.9647 7.1814 16.5645C7.04294 16.3653 6.93696 16.2006 6.86684 16.088C6.83181 16.0317 6.80584 15.9886 6.78935 15.9608C6.78111 15.9469 6.77524 15.9368 6.7718 15.9309C6.77009 15.9279 6.76898 15.926 6.76848 15.9251C6.76824 15.9247 6.76814 15.9245 6.7682 15.9247C6.76823 15.9247 6.7683 15.9248 6.76841 15.925C6.76847 15.9251 6.76858 15.9253 6.7686 15.9254C6.76872 15.9256 6.76885 15.9258 5.89925 16.4195C5.02965 16.9133 5.0298 16.9136 5.02996 16.9138C5.03002 16.914 5.03019 16.9143 5.03033 16.9145C5.03059 16.915 5.0309 16.9155 5.03125 16.9161C5.03194 16.9173 5.0328 16.9188 5.03381 16.9206C5.03585 16.9241 5.03852 16.9288 5.04183 16.9345C5.04845 16.9459 5.05761 16.9616 5.06927 16.9812C5.09259 17.0205 5.12591 17.0758 5.16884 17.1448C5.25462 17.2826 5.37916 17.4758 5.5392 17.706C5.858 18.1646 6.32415 18.7795 6.91207 19.3985C8.04888 20.5953 9.82378 22 12 22V21ZM5.89925 16.4195V15.4195H3V16.4195V17.4195H5.89925V16.4195ZM3 16.4195V15.4195H2H1C1 16.5241 1.89544 17.4195 3 17.4195V16.4195ZM2 15.4195H3V8.5054H2H1V15.4195H2ZM2 8.5054H3V8.5054V7.5054V6.5054C1.89544 6.5054 1 7.4008 1 8.5054H2ZM3 7.5054V8.5054H5.89925V7.5054V6.5054H3V7.5054ZM5.89925 7.5054C6.76531 8.00534 6.76518 8.00557 6.76506 8.00578C6.76503 8.00583 6.76492 8.00602 6.76486 8.00612C6.76475 8.00631 6.76467 8.00644 6.76464 8.0065C6.76457 8.00662 6.76466 8.00647 6.7649 8.00606C6.76537 8.00524 6.76647 8.00337 6.76817 8.00048C6.77157 7.99471 6.77741 7.98489 6.78561 7.97128C6.80204 7.94405 6.82793 7.90174 6.86288 7.8465C6.93285 7.73592 7.03866 7.57424 7.17695 7.37857C7.4548 6.98542 7.85716 6.46441 8.35647 5.94735C9.39266 4.87433 10.6697 4 12 4V3V2C9.83032 2 8.05697 3.37837 6.91778 4.55805C6.3294 5.16734 5.86283 5.77268 5.54366 6.22429C5.38344 6.451 5.25872 6.64131 5.17279 6.77711C5.12979 6.84508 5.09639 6.89956 5.07301 6.93833C5.06132 6.95772 5.05212 6.97319 5.04547 6.98447C5.04214 6.99011 5.03945 6.9947 5.0374 6.99821C5.03638 6.99997 5.03551 7.00145 5.03481 7.00266C5.03446 7.00327 5.03415 7.0038 5.03388 7.00427C5.03374 7.0045 5.03357 7.0048 5.0335 7.00492C5.03334 7.0052 5.03319 7.00546 5.89925 7.5054ZM16 7.5L15.3339 8.2459C15.5929 8.4771 15.8279 8.73635 16.0345 9.01921L16.8421 8.4294L17.6496 7.83959C17.3602 7.44335 17.0303 7.0794 16.6661 6.7541L16 7.5ZM16.8421 8.4294L16.0345 9.01921C16.6399 9.8481 17 10.8785 17 12H18H19C19 10.4438 18.4988 9.0023 17.6496 7.8396L16.8421 8.4294ZM18 12H17C17 13.1118 16.6461 14.134 16.0502 14.9592L16.8609 15.5447L17.6716 16.1301C18.5074 14.9727 19 13.5427 19 12H18ZM16.8609 15.5447L16.0502 14.9591C15.8399 15.2504 15.5994 15.517 15.3339 15.7541L16 16.5L16.6661 17.2459C17.0397 16.9123 17.377 16.5381 17.6716 16.1302L16.8609 15.5447ZM17.118 20.5928L17.6305 21.4515C20.8441 19.5334 23 16.019 23 12H22H21C21 15.286 19.2395 18.1619 16.6054 19.7342L17.118 20.5928ZM22 12H23C23 8.04354 20.9105 4.57593 17.7796 2.6391L17.2535 3.48953L16.7274 4.33996C19.2938 5.92757 21 8.76496 21 12H22Z" fill="currentColor"/>
</svg>
