<svg width="16" height="16" viewBox="0 0 16 16" fill="none" xmlns="http://www.w3.org/2000/svg">
<path d="M15.6585 13.1143L9.38682 2.25235C8.6197 0.924348 7.36601 0.924348 6.59909 2.25235L0.327353 13.1143C-0.439564 14.4437 0.187856 15.5281 1.72062 15.5281H14.2652C15.798 15.528 16.4248 14.4436 15.6585 13.1143ZM7.13152 5.33431C7.35689 5.09065 7.64342 4.96879 7.99287 4.96879C8.3425 4.96879 8.62877 5.08936 8.85438 5.32944C9.07852 5.57006 9.19055 5.87098 9.19055 6.23283C9.19055 6.54417 8.7227 8.83353 8.56664 10.499H7.43975C7.30289 8.83352 6.79524 6.54417 6.79524 6.23283C6.79527 5.87647 6.90748 5.57679 7.13152 5.33431ZM8.8386 13.2539C8.60154 13.4847 8.31945 13.5998 7.99295 13.5998C7.66653 13.5998 7.38436 13.4847 7.14735 13.2539C6.91098 13.0235 6.7935 12.7445 6.7935 12.4169C6.7935 12.0909 6.91098 11.8089 7.14735 11.5725C7.38436 11.3361 7.66653 11.2179 7.99295 11.2179C8.31945 11.2179 8.60154 11.3361 8.8386 11.5725C9.0748 11.8089 9.19256 12.0909 9.19256 12.4169C9.19256 12.7445 9.0748 13.0235 8.8386 13.2539Z" fill="currentColor"/>
</svg>
