<svg width="40" height="40" viewBox="0 0 40 40" fill="none" xmlns="http://www.w3.org/2000/svg">
<path fill-rule="evenodd" clip-rule="evenodd" d="M18.9736 9.50481C19.4472 8.73541 20.5655 8.73534 21.039 9.50481L26.1006 17.7294C23.6795 18.8796 22.0001 21.2673 22 23.9999C22 26.871 23.8537 29.3612 26.4736 30.4355H8.26364C7.31496 30.4355 6.73352 29.3949 7.23044 28.5868L18.9736 9.50481ZM20.0058 24.3495C19.5256 24.3495 19.1367 24.7384 19.1367 25.2187V25.6532C19.137 26.1332 19.5258 26.5234 20.0058 26.5234C20.4856 26.523 20.8747 26.133 20.875 25.6532V25.2187C20.875 24.7387 20.4858 24.3499 20.0058 24.3495ZM30.1914 24.3769L29.3466 23.9999L29.3476 23.0058L30.1914 24.3769ZM20.0049 16.5234C19.5247 16.5239 19.1363 16.9133 19.1367 17.3935L19.1396 21.7411C19.1404 22.2209 19.5299 22.6095 20.0097 22.6093C20.4895 22.6086 20.8791 22.219 20.8789 21.7392L20.875 17.3915C20.8744 16.9116 20.4847 16.5233 20.0049 16.5234Z" fill="#1788DF"/>
<path d="M30.2988 24L36.002 26.5449C34.9638 28.6518 32.7416 29.9979 30.2988 30C26.8444 29.9998 24.002 27.2914 24.002 24C24.0021 20.7087 26.8445 18.0002 30.2988 18H30.3076L30.2988 24ZM31.2012 18C34.4521 18.9843 36.4525 22.0405 35.9141 25.2002L31.2559 23.4482L31.2012 18Z" fill="#1788DF"/>
</svg>
