<svg width="14" height="13" viewBox="0 0 14 13" fill="none" xmlns="http://www.w3.org/2000/svg">
<g clip-path="url(#clip0_996_5317)">
<path d="M6.99998 10.7916C7.40268 10.7916 7.72915 10.4651 7.72915 10.0624C7.72915 9.65971 7.40268 9.33325 6.99998 9.33325C6.59728 9.33325 6.27081 9.65971 6.27081 10.0624C6.27081 10.4651 6.59728 10.7916 6.99998 10.7916Z" fill="#0BF9FE"/>
<path d="M7.58331 3.49992C7.58331 3.17775 7.32215 2.91659 6.99998 2.91659C6.67781 2.91659 6.41665 3.17775 6.41665 3.49992V8.16658C6.41665 8.48875 6.67781 8.74992 6.99998 8.74992C7.32215 8.74992 7.58331 8.48875 7.58331 8.16658V3.49992Z" fill="#0BF9FE"/>
<path d="M2.46271 2.46265C3.62328 1.3021 5.22824 0.583252 6.99998 0.583252C8.77172 0.583252 10.3767 1.3021 11.5372 2.46265C12.6978 3.62321 13.4166 5.22818 13.4166 6.99992C13.4166 8.77166 12.6978 10.3766 11.5372 11.5372C10.3767 12.6977 8.77172 13.4166 6.99998 13.4166C5.22824 13.4166 3.62327 12.6977 2.46271 11.5372C1.30217 10.3766 0.583313 8.77166 0.583313 6.99992C0.583313 5.22818 1.30217 3.62321 2.46271 2.46265ZM6.99998 1.74992C5.55009 1.74992 4.23838 2.33691 3.28766 3.28761C2.33696 4.23833 1.74998 5.55003 1.74998 6.99992C1.74998 8.44981 2.33697 9.76151 3.28767 10.7122C4.23839 11.6629 5.55009 12.2499 6.99998 12.2499C8.44987 12.2499 9.76157 11.6629 10.7123 10.7122C11.663 9.76151 12.25 8.44981 12.25 6.99992C12.25 5.55003 11.663 4.23832 10.7123 3.28761C9.76157 2.33691 8.44987 1.74992 6.99998 1.74992Z" fill="#0BF9FE"/>
</g>
<defs>
<clipPath id="clip0_996_5317">
<rect width="14" height="14" fill="white"/>
</clipPath>
</defs>
</svg>
