<svg width="40" height="43" viewBox="0 0 40 43" fill="none" xmlns="http://www.w3.org/2000/svg">
<mask id="path-1-inside-1_86124_85468" fill="white">
<path d="M19.8418 0C30.8 0 39.6836 8.8836 39.6836 19.8418C39.6835 29.1184 33.3167 36.9069 24.7148 39.0791L20.8242 42.9707L17.3848 39.5312C7.58607 38.321 0.0001105 29.9679 0 19.8418C0 8.8836 8.8836 2.12591e-07 19.8418 0Z"/>
</mask>
<path d="M19.8418 0C30.8 0 39.6836 8.8836 39.6836 19.8418C39.6835 29.1184 33.3167 36.9069 24.7148 39.0791L20.8242 42.9707L17.3848 39.5312C7.58607 38.321 0.0001105 29.9679 0 19.8418C0 8.8836 8.8836 2.12591e-07 19.8418 0Z" fill="#1D84FF"/>
<path d="M19.8418 0V-1.5V-1.5V0ZM39.6836 19.8418L41.1836 19.8418V19.8418H39.6836ZM24.7148 39.0791L24.3476 37.6248L23.9465 37.726L23.6541 38.0186L24.7148 39.0791ZM20.8242 42.9707L19.7636 44.0314L20.8244 45.0922L21.885 44.0312L20.8242 42.9707ZM17.3848 39.5312L18.4454 38.4706L18.0806 38.1058L17.5686 38.0426L17.3848 39.5312ZM0 19.8418H-1.5V19.8418L0 19.8418ZM19.8418 0V1.5C29.9716 1.5 38.1836 9.71202 38.1836 19.8418H39.6836H41.1836C41.1836 8.05517 31.6284 -1.5 19.8418 -1.5V0ZM39.6836 19.8418L38.1836 19.8418C38.1835 28.4149 32.2996 35.6167 24.3476 37.6248L24.7148 39.0791L25.0821 40.5334C34.3339 38.1971 41.1835 29.8219 41.1836 19.8418L39.6836 19.8418ZM24.7148 39.0791L23.6541 38.0186L19.7634 41.9102L20.8242 42.9707L21.885 44.0312L25.7756 40.1396L24.7148 39.0791ZM20.8242 42.9707L21.8849 41.91L18.4454 38.4706L17.3848 39.5312L16.3241 40.5919L19.7636 44.0314L20.8242 42.9707ZM17.3848 39.5312L17.5686 38.0426C8.5121 36.924 1.5001 29.2011 1.5 19.8418L0 19.8418L-1.5 19.8418C-1.49988 30.7347 6.66004 39.718 17.2009 41.0199L17.3848 39.5312ZM0 19.8418H1.5C1.5 9.71202 9.71202 1.5 19.8418 1.5V0V-1.5C8.05517 -1.5 -1.5 8.05517 -1.5 19.8418H0Z" fill="white" fill-opacity="0.8" mask="url(#path-1-inside-1_86124_85468)"/>
</svg>
