<svg width="50" height="54" viewBox="0 0 50 54" fill="none" xmlns="http://www.w3.org/2000/svg">
  <mask id="robot-selected-halo-mask" fill="white">
    <path d="M25 0C38.8071 0 50 11.1637 50 24.9346C49.9999 36.592 41.9785 46.3794 31.1406 49.1094L26.2393 54L21.9053 49.6777C9.55869 48.1573 0.000127986 37.6601 0 24.9346C0 11.1638 11.193 5.2746e-05 25 0Z"/>
  </mask>
  <path d="M25 0V-2H25L25 0ZM50 24.9346L52 24.9346V24.9346H50ZM31.1406 49.1094L30.6521 47.17L30.1179 47.3045L29.728 47.6936L31.1406 49.1094ZM26.2393 54L24.827 55.4161L26.2396 56.825L27.6519 55.4158L26.2393 54ZM21.9053 49.6777L23.3176 48.2616L22.8313 47.7767L22.1497 47.6927L21.9053 49.6777ZM0 24.9346H-2V24.9346L0 24.9346ZM25 0V2C37.7074 2 48 12.2732 48 24.9346H50H52C52 10.0542 39.9067 -2 25 -2V0ZM50 24.9346L48 24.9345C47.9999 35.6503 40.626 44.6576 30.6521 47.17L31.1406 49.1094L31.6291 51.0488C43.3309 48.1012 51.9999 37.5337 52 24.9346L50 24.9346ZM31.1406 49.1094L29.728 47.6936L24.8266 52.5842L26.2393 54L27.6519 55.4158L32.5533 50.5251L31.1406 49.1094ZM26.2393 54L27.6516 52.5839L23.3176 48.2616L21.9053 49.6777L20.493 51.0939L24.827 55.4161L26.2393 54ZM21.9053 49.6777L22.1497 47.6927C10.7889 46.2937 2.00012 36.6333 2 24.9345L0 24.9346L-2 24.9346C-1.99986 38.6868 8.32845 50.0209 21.6608 51.6627L21.9053 49.6777ZM0 24.9346H2C2 12.2733 12.2926 2.00005 25 2L25 0L25 -2C10.0934 -1.99994 -2 10.0542 -2 24.9346H0Z" fill="url(#robot-selected-halo-grad)" mask="url(#robot-selected-halo-mask)"/>
  <defs>
    <linearGradient id="robot-selected-halo-grad" x1="17.5555" y1="18.0098" x2="26.0409" y2="49.5381" gradientUnits="userSpaceOnUse">
      <stop stop-color="#4AE1FE"/>
      <stop offset="1" stop-color="#1282FA"/>
    </linearGradient>
  </defs>
</svg>
